<svg xmlns="http://www.w3.org/2000/svg" width="1280" height="720"><path d="M868,408L654,579L864,546Z" fill="#ff401e" stroke="#ff401e" stroke-width="1.51"/><path d="M868,408L603,310L654,579Z" fill="#ff3410" stroke="#ff3410" stroke-width="1.51"/><path d="M603,310L494,365L654,579Z" fill="#f92d07" stroke="#f92d07" stroke-width="1.51"/><path d="M603,310L500,78L494,365Z" fill="#e82400" stroke="#e82400" stroke-width="1.51"/><path d="M868,408L688,176L603,310Z" fill="#f72d08" stroke="#f72d08" stroke-width="1.51"/><path d="M654,579L821,783L864,546Z" fill="#ff4726" stroke="#ff4726" stroke-width="1.51"/><path d="M434,573L578,743L654,579Z" fill="#f73e1c" stroke="#f73e1c" stroke-width="1.51"/><path d="M578,743L821,783L654,579Z" fill="#ff4726" stroke="#ff4726" stroke-width="1.51"/><path d="M494,365L434,573L654,579Z" fill="#f53411" stroke="#f53411" stroke-width="1.51"/><path d="M868,408L839,124L688,176Z" fill="#f0310e" stroke="#f0310e" stroke-width="1.51"/><path d="M864,546L1057,354L868,408Z" fill="#ff4120" stroke="#ff4120" stroke-width="1.51"/><path d="M1145,530L1057,354L864,546Z" fill="#ff4928" stroke="#ff4928" stroke-width="1.51"/><path d="M1057,354L839,124L868,408Z" fill="#f73a18" stroke="#f73a18" stroke-width="1.51"/><path d="M821,783L1039,717L864,546Z" fill="#ff5031" stroke="#ff5031" stroke-width="1.51"/><path d="M1039,717L1145,530L864,546Z" fill="#ff5031" stroke="#ff5031" stroke-width="1.51"/><path d="M434,573L386,729L578,743Z" fill="#ef4020" stroke="#ef4020" stroke-width="1.51"/><path d="M578,743L592,1062L821,783Z" fill="#ff5130" stroke="#ff5130" stroke-width="1.51"/><path d="M185,510L386,729L434,573Z" fill="#e33819" stroke="#e33819" stroke-width="1.51"/><path d="M688,176L500,78L603,310Z" fill="#e62400" stroke="#e62400" stroke-width="1.51"/><path d="M494,365L185,510L434,573Z" fill="#e62f0e" stroke="#e62f0e" stroke-width="1.51"/><path d="M672,-71L500,78L688,176Z" fill="#da2200" stroke="#da2200" stroke-width="1.51"/><path d="M1057,354L1145,182L839,124Z" fill="#ee3d1d" stroke="#ee3d1d" stroke-width="1.51"/><path d="M1368,319L1145,182L1057,354Z" fill="#f74828" stroke="#f74828" stroke-width="1.51"/><path d="M1145,530L1368,319L1057,354Z" fill="#ff4d2c" stroke="#ff4d2c" stroke-width="1.51"/><path d="M1039,717L1231,594L1145,530Z" fill="#ff5738" stroke="#ff5738" stroke-width="1.51"/><path d="M840,-108L672,-71L839,124Z" fill="#d22b0b" stroke="#d22b0b" stroke-width="1.51"/><path d="M839,124L672,-71L688,176Z" fill="#dd2a08" stroke="#dd2a08" stroke-width="1.51"/><path d="M144,414L185,510L494,365Z" fill="#dd2907" stroke="#dd2907" stroke-width="1.51"/><path d="M1039,717L1238,783L1231,594Z" fill="#ff5d3f" stroke="#ff5d3f" stroke-width="1.51"/><path d="M1114,1057L1238,783L1039,717Z" fill="#ff6448" stroke="#ff6448" stroke-width="1.51"/><path d="M1091,-27L840,-108L839,124Z" fill="#d43415" stroke="#d43415" stroke-width="1.51"/><path d="M157,138L144,414L494,365Z" fill="#d62100" stroke="#d62100" stroke-width="1.51"/><path d="M472,1040L578,743L386,729Z" fill="#f14b2b" stroke="#f14b2b" stroke-width="1.51"/><path d="M472,1040L592,1062L578,743Z" fill="#f85434" stroke="#f85434" stroke-width="1.51"/><path d="M821,783L911,1082L1039,717Z" fill="#ff5d3d" stroke="#ff5d3d" stroke-width="1.51"/><path d="M1145,182L1091,-27L839,124Z" fill="#df3b1c" stroke="#df3b1c" stroke-width="1.51"/><path d="M1145,182L1219,69L1091,-27Z" fill="#dd4023" stroke="#dd4023" stroke-width="1.51"/><path d="M1368,319L1219,69L1145,182Z" fill="#eb492a" stroke="#eb492a" stroke-width="1.51"/><path d="M1368,319L1145,530L1231,594Z" fill="#ff5535" stroke="#ff5535" stroke-width="1.51"/><path d="M201,1048L472,1040L386,729Z" fill="#e54f31" stroke="#e54f31" stroke-width="1.51"/><path d="M592,1062L911,1082L821,783Z" fill="#ff5e3d" stroke="#ff5e3d" stroke-width="1.51"/><path d="M1577,357L1368,319L1584,524Z" fill="#ff5e3e" stroke="#ff5e3e" stroke-width="1.51"/><path d="M500,78L157,138L494,365Z" fill="#d32200" stroke="#d32200" stroke-width="1.51"/><path d="M672,-71L353,-36L500,78Z" fill="#c71f00" stroke="#c71f00" stroke-width="1.51"/><path d="M257,-135L353,-36L373,-307Z" fill="#ba270a" stroke="#ba270a" stroke-width="1.51"/><path d="M185,510L162,756L386,729Z" fill="#db3a1d" stroke="#db3a1d" stroke-width="1.51"/><path d="M26,550L162,756L185,510Z" fill="#d23618" stroke="#d23618" stroke-width="1.51"/><path d="M353,-36L157,138L500,78Z" fill="#bf1e00" stroke="#bf1e00" stroke-width="1.51"/><path d="M911,1082L1114,1057L1039,717Z" fill="#ff6649" stroke="#ff6649" stroke-width="1.51"/><path d="M-52,405L26,550L144,414Z" fill="#d52f11" stroke="#d52f11" stroke-width="1.51"/><path d="M144,414L26,550L185,510Z" fill="#d32e10" stroke="#d32e10" stroke-width="1.51"/><path d="M592,1062L832,1228L911,1082Z" fill="#ff6748" stroke="#ff6748" stroke-width="1.51"/><path d="M911,1082L1077,1298L1114,1057Z" fill="#ff7155" stroke="#ff7155" stroke-width="1.51"/><path d="M472,1040L571,1202L592,1062Z" fill="#f85e3e" stroke="#f85e3e" stroke-width="1.51"/><path d="M444,1301L571,1202L472,1040Z" fill="#f45e3f" stroke="#f45e3f" stroke-width="1.51"/><path d="M840,-108L706,-329L672,-71Z" fill="#d73215" stroke="#d73215" stroke-width="1.51"/><path d="M1091,-27L999,-236L840,-108Z" fill="#d53c1f" stroke="#d53c1f" stroke-width="1.51"/><path d="M1275,-244L999,-236L1091,-27Z" fill="#d74429" stroke="#d74429" stroke-width="1.51"/><path d="M571,1202L832,1228L592,1062Z" fill="#ff6242" stroke="#ff6242" stroke-width="1.51"/><path d="M999,-236L881,-293L840,-108Z" fill="#d83d21" stroke="#d83d21" stroke-width="1.51"/><path d="M353,-36L257,-135L157,138Z" fill="#b01b00" stroke="#b01b00" stroke-width="1.51"/><path d="M373,-307L353,-36L672,-71Z" fill="#c62809" stroke="#c62809" stroke-width="1.51"/><path d="M1219,69L1306,-108L1091,-27Z" fill="#d24125" stroke="#d24125" stroke-width="1.51"/><path d="M1368,319L1447,118L1219,69Z" fill="#e94e2f" stroke="#e94e2f" stroke-width="1.51"/><path d="M1577,357L1447,118L1368,319Z" fill="#f55737" stroke="#f55737" stroke-width="1.51"/><path d="M157,138L19,166L144,414Z" fill="#c52202" stroke="#c52202" stroke-width="1.51"/><path d="M54,-63L19,166L157,138Z" fill="#b32004" stroke="#b32004" stroke-width="1.51"/><path d="M-19,853L201,1048L162,756Z" fill="#d3482c" stroke="#d3482c" stroke-width="1.51"/><path d="M162,756L201,1048L386,729Z" fill="#db4629" stroke="#db4629" stroke-width="1.51"/><path d="M19,166L-52,405L144,414Z" fill="#d12707" stroke="#d12707" stroke-width="1.51"/><path d="M26,550L-19,853L162,756Z" fill="#d44024" stroke="#d44024" stroke-width="1.51"/><path d="M1584,524L1368,319L1231,594Z" fill="#ff5d3d" stroke="#ff5d3d" stroke-width="1.51"/><path d="M1114,1057L1274,1076L1238,783Z" fill="#ff6f54" stroke="#ff6f54" stroke-width="1.51"/><path d="M1240,1298L1274,1076L1114,1057Z" fill="#ff785d" stroke="#ff785d" stroke-width="1.51"/><path d="M881,-293L706,-329L840,-108Z" fill="#d93b1e" stroke="#d93b1e" stroke-width="1.51"/><path d="M1447,118L1306,-108L1219,69Z" fill="#d8492c" stroke="#d8492c" stroke-width="1.51"/><path d="M999,-236L1275,-244L881,-293Z" fill="#da462b" stroke="#da462b" stroke-width="1.51"/><path d="M1584,524L1231,594L1525,836Z" fill="#ff684b" stroke="#ff684b" stroke-width="1.51"/><path d="M1525,836L1231,594L1238,783Z" fill="#ff674b" stroke="#ff674b" stroke-width="1.51"/><path d="M-261,595L-19,853L26,550Z" fill="#d84327" stroke="#d84327" stroke-width="1.51"/><path d="M201,1048L254,1178L472,1040Z" fill="#e2573b" stroke="#e2573b" stroke-width="1.51"/><path d="M571,1202L444,1301L832,1228Z" fill="#ff6140" stroke="#ff6140" stroke-width="1.51"/><path d="M-76,1175L254,1178L201,1048Z" fill="#d4563b" stroke="#d4563b" stroke-width="1.51"/><path d="M1454,1061L1525,836L1238,783Z" fill="#ff7459" stroke="#ff7459" stroke-width="1.51"/><path d="M257,-135L54,-63L157,138Z" fill="#a61a00" stroke="#a61a00" stroke-width="1.51"/><path d="M706,-329L373,-307L672,-71Z" fill="#d43012" stroke="#d43012" stroke-width="1.51"/><path d="M-31,-222L54,-63L257,-135Z" fill="#ac260c" stroke="#ac260c" stroke-width="1.51"/><path d="M19,166L-153,219L-52,405Z" fill="#cc2b0e" stroke="#cc2b0e" stroke-width="1.51"/><path d="M254,1178L444,1301L472,1040Z" fill="#ea5b3e" stroke="#ea5b3e" stroke-width="1.51"/><path d="M832,1228L1077,1298L911,1082Z" fill="#ff6d50" stroke="#ff6d50" stroke-width="1.51"/><path d="M1274,1076L1454,1061L1238,783Z" fill="#ff7459" stroke="#ff7459" stroke-width="1.51"/><path d="M444,1301L1077,1298L832,1228Z" fill="#ff6748" stroke="#ff6748" stroke-width="1.51"/><path d="M1523,-123L1275,-244L1306,-108Z" fill="#d75036" stroke="#d75036" stroke-width="1.51"/><path d="M1306,-108L1275,-244L1091,-27Z" fill="#d6472d" stroke="#d6472d" stroke-width="1.51"/><path d="M881,-293L1569,-310L706,-329Z" fill="#db492f" stroke="#db492f" stroke-width="1.51"/><path d="M1523,-123L1306,-108L1447,118Z" fill="#d34e32" stroke="#d34e32" stroke-width="1.51"/><path d="M1240,1298L1454,1061L1274,1076Z" fill="#ff7c63" stroke="#ff7c63" stroke-width="1.51"/><path d="M-246,-75L-153,219L19,166Z" fill="#bb2c10" stroke="#bb2c10" stroke-width="1.51"/><path d="M-52,405L-200,421L26,550Z" fill="#d83618" stroke="#d83618" stroke-width="1.51"/><path d="M373,-307L244,-316L257,-135Z" fill="#bb2c11" stroke="#bb2c11" stroke-width="1.51"/><path d="M706,-329L244,-316L373,-307Z" fill="#ca3317" stroke="#ca3317" stroke-width="1.51"/><path d="M-153,219L-200,421L-52,405Z" fill="#d83213" stroke="#d83213" stroke-width="1.51"/><path d="M444,1301L1240,1298L1077,1298Z" fill="#ff6c4f" stroke="#ff6c4f" stroke-width="1.51"/><path d="M1077,1298L1240,1298L1114,1057Z" fill="#ff755a" stroke="#ff755a" stroke-width="1.51"/><path d="M1679,-69L1523,-123L1447,118Z" fill="#d35237" stroke="#d35237" stroke-width="1.51"/><path d="M1780,89L1679,-69L1447,118Z" fill="#db573b" stroke="#db573b" stroke-width="1.51"/><path d="M1584,524L1732,437L1577,357Z" fill="#ff6646" stroke="#ff6646" stroke-width="1.51"/><path d="M1776,505L1732,437L1584,524Z" fill="#ff6849" stroke="#ff6849" stroke-width="1.51"/><path d="M1776,505L1584,524L1723,831Z" fill="#ff6e52" stroke="#ff6e52" stroke-width="1.51"/><path d="M-19,853L-64,1062L201,1048Z" fill="#d65137" stroke="#d65137" stroke-width="1.51"/><path d="M254,1178L-174,1253L444,1301Z" fill="#d6563b" stroke="#d6563b" stroke-width="1.51"/><path d="M-170,1039L-64,1062L-19,853Z" fill="#d8563c" stroke="#d8563c" stroke-width="1.51"/><path d="M-246,-75L-261,595L-200,421Z" fill="#d73619" stroke="#d73619" stroke-width="1.51"/><path d="M-200,421L-261,595L26,550Z" fill="#d93d20" stroke="#d93d20" stroke-width="1.51"/><path d="M1780,89L1447,118L1577,357Z" fill="#ec5c3d" stroke="#ec5c3d" stroke-width="1.51"/><path d="M1723,831L1584,524L1525,836Z" fill="#ff7358" stroke="#ff7358" stroke-width="1.51"/><path d="M1689,1047L1723,831L1525,836Z" fill="#ff7d64" stroke="#ff7d64" stroke-width="1.51"/><path d="M1689,1047L1525,836L1454,1061Z" fill="#ff7f66" stroke="#ff7f66" stroke-width="1.51"/><path d="M244,-316L-31,-222L257,-135Z" fill="#ae280e" stroke="#ae280e" stroke-width="1.51"/><path d="M54,-63L-246,-75L19,166Z" fill="#af260b" stroke="#af260b" stroke-width="1.51"/><path d="M-153,219L-246,-75L-200,421Z" fill="#c73115" stroke="#c73115" stroke-width="1.51"/><path d="M-261,595L-229,868L-19,853Z" fill="#da4d32" stroke="#da4d32" stroke-width="1.51"/><path d="M-229,868L-170,1039L-19,853Z" fill="#da553b" stroke="#da553b" stroke-width="1.51"/><path d="M-64,1062L-76,1175L201,1048Z" fill="#d7593e" stroke="#d7593e" stroke-width="1.51"/><path d="M-170,1039L-76,1175L-64,1062Z" fill="#d95d44" stroke="#d95d44" stroke-width="1.51"/><path d="M1523,-123L1569,-310L1275,-244Z" fill="#d9583e" stroke="#d9583e" stroke-width="1.51"/><path d="M1780,89L1577,357L1732,437Z" fill="#f95f40" stroke="#f95f40" stroke-width="1.51"/><path d="M1776,505L1780,89L1732,437Z" fill="#ff6140" stroke="#ff6140" stroke-width="1.51"/><path d="M1557,1256L1689,1047L1454,1061Z" fill="#ff8770" stroke="#ff8770" stroke-width="1.51"/><path d="M1723,831L1735,1268L1776,505Z" fill="#ff7b62" stroke="#ff7b62" stroke-width="1.51"/><path d="M1240,1298L1557,1256L1454,1061Z" fill="#ff8168" stroke="#ff8168" stroke-width="1.51"/><path d="M-31,-222L-246,-75L54,-63Z" fill="#b02d13" stroke="#b02d13" stroke-width="1.51"/><path d="M1700,-303L1523,-123L1679,-69Z" fill="#d85c43" stroke="#d85c43" stroke-width="1.51"/><path d="M1700,-303L1569,-310L1523,-123Z" fill="#da5f47" stroke="#da5f47" stroke-width="1.51"/><path d="M1275,-244L1569,-310L881,-293Z" fill="#db5137" stroke="#db5137" stroke-width="1.51"/><path d="M-76,1175L-174,1253L254,1178Z" fill="#d75b41" stroke="#d75b41" stroke-width="1.51"/><path d="M-170,1039L-174,1253L-76,1175Z" fill="#da6048" stroke="#da6048" stroke-width="1.51"/><path d="M-229,868L-174,1253L-170,1039Z" fill="#dc5e46" stroke="#dc5e46" stroke-width="1.51"/><path d="M1780,89L1700,-303L1679,-69Z" fill="#d6593f" stroke="#d6593f" stroke-width="1.51"/><path d="M1240,1298L1735,1268L1557,1256Z" fill="#ff856d" stroke="#ff856d" stroke-width="1.51"/><path d="M1557,1256L1735,1268L1689,1047Z" fill="#ff8973" stroke="#ff8973" stroke-width="1.51"/><path d="M1689,1047L1735,1268L1723,831Z" fill="#ff856e" stroke="#ff856e" stroke-width="1.51"/><path d="M-31,-222L-245,-363L-246,-75Z" fill="#b5361e" stroke="#b5361e" stroke-width="1.51"/><path d="M-246,-75L-245,-363L-261,595Z" fill="#b93016" stroke="#b93016" stroke-width="1.51"/><path d="M244,-316L-245,-363L-31,-222Z" fill="#b4341b" stroke="#b4341b" stroke-width="1.51"/><path d="M706,-329L-245,-363L244,-316Z" fill="#b83016" stroke="#b83016" stroke-width="1.51"/><path d="M1569,-310L-245,-363L706,-329Z" fill="#dd391c" stroke="#dd391c" stroke-width="1.51"/></svg>