<?xml version="1.0" encoding="UTF-8" standalone="no"?>
<!-- Created with Inkscape (http://www.inkscape.org/) -->

<svg
   xmlns:dc="http://purl.org/dc/elements/1.1/"
   xmlns:cc="http://creativecommons.org/ns#"
   xmlns:rdf="http://www.w3.org/1999/02/22-rdf-syntax-ns#"
   xmlns:svg="http://www.w3.org/2000/svg"
   xmlns="http://www.w3.org/2000/svg"
   xmlns:sodipodi="http://sodipodi.sourceforge.net/DTD/sodipodi-0.dtd"
   xmlns:inkscape="http://www.inkscape.org/namespaces/inkscape"
   width="210mm"
   height="297mm"
   viewBox="0 0 744.09448819 1052.3622047"
   id="svg31704"
   version="1.1"
   inkscape:version="0.91 r"
   sodipodi:docname="hitler_head2.svg">
  <defs
     id="defs31706" />
  <sodipodi:namedview
     id="base"
     pagecolor="#ffffff"
     bordercolor="#666666"
     borderopacity="1.0"
     inkscape:pageopacity="0.0"
     inkscape:pageshadow="2"
     inkscape:zoom="0.29303262"
     inkscape:cx="994.8101"
     inkscape:cy="432.46603"
     inkscape:document-units="px"
     inkscape:current-layer="layer1"
     showgrid="false"
     inkscape:window-width="1366"
     inkscape:window-height="719"
     inkscape:window-x="0"
     inkscape:window-y="25"
     inkscape:window-maximized="1" />
  <metadata
     id="metadata31709">
    <rdf:RDF>
      <cc:Work
         rdf:about="">
        <dc:format>image/svg+xml</dc:format>
        <dc:type
           rdf:resource="http://purl.org/dc/dcmitype/StillImage" />
        <dc:title></dc:title>
      </cc:Work>
    </rdf:RDF>
  </metadata>
  <g
     inkscape:label="Layer 1"
     inkscape:groupmode="layer"
     id="layer1">
    <path
       style="fill:#000000;fill-rule:evenodd;stroke:none;stroke-width:1px;stroke-linecap:butt;stroke-linejoin:miter;stroke-opacity:1"
       d="m 551.22839,31.607223 c -25.62768,-0.108606 -53.28173,7.803821 -76.20155,18.08404 -32.20276,14.443887 -48.55054,21.668876 -58.21978,25.92255 -2.58393,0.03551 -4.92973,-0.200477 -7.19003,-0.523368 -3.11008,-0.444297 -0.41422,1.38246 0.77091,3.348794 -0.70718,0.309247 -4.25022,1.870156 -4.25022,1.870156 l -3.5493,1.930705 c -2.43494,-0.302605 -4.67967,-0.809732 -6.19304,-0.364613 -1.55394,0.457043 0.6755,1.346569 2.6976,2.26437 l -4.18699,2.277827 c -2.78453,-0.327428 -5.69298,-0.684227 -7.55733,0.154722 -2.07527,0.933856 0.4448,1.562027 3.21025,2.209212 l -3.48338,1.894376 c -3.74708,-0.02433 -7.65721,0.114041 -9.1207,1.115373 -1.65368,1.131484 0.39341,1.827437 2.5913,2.436583 l -5.47055,2.974771 c -2.20616,0.0766 -4.19001,0.21004 -5.12342,0.67675 -1.01986,0.50994 0.23014,0.71656 2.18232,0.92297 l -3.6031,1.958959 c -3.97744,0.0719 -8.63823,0.42055 -10.23474,1.64144 -1.65713,1.2672 2.08589,1.12281 5.64276,1.17187 -0.45906,0.307 -2.71322,1.81218 -3.79013,2.53211 -4.71542,0.0898 -10.16522,0.32265 -13.50814,2.037 -4.71624,2.41855 2.83329,1.72881 7.70391,1.8419 -2.25259,1.50505 -2.59998,1.73618 -5.43824,3.63135 -5.4793,1.0041 -11.28339,1.9846 -10.61547,3.22501 0.46629,0.8661 2.62003,0.76022 5.10594,0.44938 -1.15978,0.77408 -2.60282,1.7349 -3.81976,2.54691 -3.76244,0.38778 -7.34295,0.93316 -9.11533,2.04911 -2.21586,1.39517 0.54179,1.35288 4.60279,0.96064 -1.15234,0.76864 -2.2681,1.51138 -3.45376,2.30203 -5.07356,0.32812 -11.00661,0.98575 -11.41201,2.3034 -0.30537,0.99245 2.75181,1.20683 6.00064,1.30507 -1.11066,0.74026 -2.0004,1.33499 -3.12676,2.08543 -4.45344,0.0409 -8.92954,0.14543 -10.35453,1.48133 -1.51371,1.41914 1.39482,1.96559 4.33771,2.53077 -1.16777,0.77745 -2.10358,1.40153 -3.27479,2.18095 -3.54124,-0.42607 -7.15771,-0.82295 -8.36998,-0.0148 -1.92083,1.28058 1.71837,1.5289 4.88391,2.33163 -0.75554,0.50256 -1.48381,0.98428 -2.23743,1.48537 -3.42083,-0.39095 -7.52151,-0.94307 -9.60511,-0.85974 -2.88993,0.11561 2.04241,1.60746 6.60476,2.85503 -2.16317,1.43764 -4.34549,2.88865 -6.45941,4.29194 -4.58852,0.20417 -9.98171,0.63106 -13.0185,1.55129 -4.09144,1.23983 2.65901,1.42476 7.77259,1.92936 -1.19642,0.79329 -2.2014,1.45602 -3.36489,2.2267 -3.5914,0.28403 -7.01651,0.63938 -7.01651,1.41002 0,0.70167 1.59404,0.88901 3.45108,0.94853 -0.71752,0.4747 -1.45178,0.961 -2.15139,1.42348 -5.48005,0.18288 -12.21218,0.37306 -14.86976,1.45576 -4.69702,1.91362 6.61082,0.17357 7.48066,1.91321 0.86983,1.73964 -9.39384,0.69668 -11.1335,3.13219 -0.90228,1.2632 2.77055,1.4509 6.21052,1.6051 -1.0326,0.67688 -2.14009,1.40412 -3.0622,2.00605 -5.26196,-0.0869 -11.0062,-0.49739 -10.80257,0.21528 0.20591,0.72072 3.93589,1.44138 7.17122,2.16212 -0.74294,0.48139 -1.22887,0.79002 -1.84864,1.18802 -4.06044,-0.5314 -8.83427,-1.18244 -10.71638,-0.91356 -2.6046,0.37209 1.94576,2.24268 5.91182,3.85603 -0.20445,0.10926 -3.40938,1.83324 -3.81699,2.05179 -4.50476,-0.17915 -9.49944,-0.29166 -11.14024,0.52876 -2.07279,1.03637 2.69821,1.33413 6.79178,1.80827 -0.7127,0.38253 -3.43068,1.84599 -4.37002,2.35048 -2.74649,0.01 -5.41661,0.15428 -6.94512,0.88529 -1.81219,0.8667 -0.16581,1.37112 1.98048,1.7827 -1.0003,0.53745 -2.59646,1.39638 -3.73088,2.00605 -3.7081,0.008 -7.41253,0.15525 -8.51396,1.25664 -1.1079,1.10792 1.17335,1.253 3.72015,1.31988 -1.56868,0.84321 -2.82139,1.51744 -4.54355,2.44332 -3.81328,0.23552 -7.2432,0.47039 -7.00437,1.10729 0.21148,0.5638 1.84788,0.69702 3.52643,0.76286 -1.51605,0.81516 -2.18143,1.17244 -3.77669,2.03027 -3.68501,0.18247 -7.65618,0.26163 -9.49207,1.03464 -1.99647,0.84062 1.50048,1.04039 5.36026,1.18668 -1.29273,0.69526 -1.6045,0.8631 -2.92906,1.57551 -3.4656,0.32235 -6.85205,0.7196 -8.34572,1.23915 -3.0009,1.04378 1.14131,0.91291 4.72113,0.70904 -1.52989,0.82296 -1.75489,0.94228 -3.3071,1.77733 -0.81892,0.0585 -1.68813,0.10356 -2.63167,0.12243 -8.69821,0.17397 -7.48072,2.08826 -2.78369,2.61016 0.0971,0.011 0.16718,0.0275 0.261,0.039 -2.21842,1.19366 -3.13708,1.68794 -5.35082,2.87925 -3.47167,0.52043 -6.65464,1.14376 -7.78334,1.25663 -0.71525,0.0716 1.48919,0.39814 4.01746,0.77094 -1.5162,0.81606 -2.70132,1.45483 -4.19774,2.26034 -1.97367,0.17279 -3.6899,0.4107 -4.51661,0.79649 -1.12498,0.52497 -0.20383,0.75339 1.35617,0.90549 -0.96131,0.5175 -1.78657,0.96184 -2.73389,1.4719 -3.00318,0.0467 -5.68982,0.0147 -6.27652,-0.1157 -1.19098,-0.26468 0.4415,0.97688 2.97341,1.89437 -1.67291,0.90085 -3.32287,1.78973 -4.93103,2.6559 -1.48326,0.12489 -2.85637,0.18878 -3.78338,0.14665 -2.19975,-0.1 -1.03233,0.60479 1.05616,1.32122 -3.38266,1.82222 -7.70053,4.14543 -10.64777,5.73426 -3.44088,0.7237 -6.37896,1.30835 -7.28288,1.46788 -1.78637,0.31523 -0.3195,0.94568 1.91456,1.43557 -3.4477,1.86095 -5.34179,2.88755 -7.2465,3.92062 -2.80906,0.44843 -5.39416,0.71386 -6.84559,0.55835 -3.0452,-0.32628 -1.46777,1.38747 0.39823,2.93036 0,6.9e-4 -0.0498,0.0276 -0.0511,0.0283 -0.6755,0.40532 -2.72867,1.46754 -4.90679,2.5819 -1.51494,-0.0446 -3.02865,-0.10071 -4.31345,-0.14665 -2.46593,-0.0881 -1.26938,0.85024 0.89063,1.88764 -1.76619,0.89082 -3.84793,1.93879 -3.84793,1.93879 0,0 -85.968067,41.75755 -106.465842,59.84373 -11.829729,10.43788 1.739589,20.18025 1.739589,20.18025 l 82.807723,44.53538 c 0,0 3.4787,2.08702 3.13082,-3.82777 -0.34795,-5.91479 6.2e-4,-11.82885 3.82781,-17.74365 3.82719,-5.91478 39.66315,-38.62036 84.54597,-66.10675 25.29014,-15.48779 75.50015,-32.70496 106.46585,-44.88248 30.96569,-12.17752 76.54468,-27.83442 76.54468,-27.83442 0,0 53.58138,-19.13672 90.46186,-22.96394 36.8805,-3.82721 58.45243,-8.35002 95.68085,1.04407 37.22836,9.39408 40.35911,25.7463 40.35911,25.7463 0,0 2.43576,3.13135 2.78371,-1.73966 0.34794,-4.871 8.69774,-39.6638 10.08945,-45.92653 1.39171,-6.26271 6.61172,-52.53647 4.17624,-72.36842 C 623.24541,70.568303 620.63903,70.562484 618.0254,66.045132 603.49395,40.929015 578.50952,31.722898 551.22843,31.6073 Z m 55.45902,75.341847 c 1.18526,0.0997 2.32664,1.67488 4.86373,3.36628 3.69032,2.46024 -0.4924,7.13428 -0.4924,11.5627 0,4.42841 -0.24531,4.67406 -2.45953,4.67406 -2.21421,0 -8.36494,-0.49128 -10.57916,-0.7373 0,0 0,-0.73788 -1.72215,-1.47595 -1.72217,-0.73807 2.21435,-1.96933 5.41267,-3.19945 3.19826,-1.23012 1.96816,-2.21402 1.72216,-3.19811 -0.24606,-0.9841 -5.65888,-2.2144 -5.65888,-5.41269 0,-3.1983 4.92069,-2.45986 7.13485,-4.67406 0.69196,-0.69194 1.23988,-0.95083 1.77871,-0.90548 z m -5.8984,29.22964 c 0.71352,-0.0461 1.19835,0.46129 0.92156,1.93743 -0.73805,3.93638 3.93603,3.69035 4.67408,5.16649 0.73805,1.47614 -1.47616,3.9356 -5.16647,5.90378 -3.69032,1.96818 -5.41186,3.69054 -4.42782,5.4127 0.98411,1.72215 4.1812,0.73845 3.68914,2.21459 -0.49205,1.47613 -0.9837,2.70548 -2.95185,2.45946 -1.96822,-0.24603 -7.62593,0 -7.62593,0 0,0 0.24482,0.24583 1.96698,-3.69054 1.72216,-3.93636 1.72298,-6.88749 -0.73729,-7.13351 -2.46021,-0.24602 -10.82551,-0.49243 -7.62725,-2.21458 3.19834,-1.72217 5.16662,0.49204 8.85701,-1.72217 3.69032,-2.2142 5.41268,-3.44452 5.41268,-5.4127 0,-1.23011 1.82584,-2.84406 3.01516,-2.92095 z"
       id="path33529"
       inkscape:connector-curvature="0" />
    <path
       style="fill:#000000;fill-rule:evenodd;stroke:none;stroke-width:1px;stroke-linecap:butt;stroke-linejoin:miter;stroke-opacity:1"
       d="m 39.246017,274.62802 c 0,0 -13.569246,9.56804 -15.65678,11.3077 -2.087604,1.73964 -1.391713,4.17515 1.217705,3.13136 2.609487,-1.04379 28.704147,-17.39646 31.313634,-18.09231 2.609487,-0.69586 57.756244,-30.44379 57.756244,-30.44379 0,0 76.19646,-40.7077 85.41657,-45.5787 9.2201,-4.87102 77.06628,-47.31836 102.987,-64.36688 25.92066,-17.04852 62.4532,-36.35859 62.4532,-36.35859 l 68.54208,-35.836674 c 0,0 64.31733,-28.107815 108.03197,-33.227234 48.93348,-5.730591 73.50679,26.253286 73.50679,26.253286 C 599.02531,9.6207627 531.8434,5.4798808 476.17069,25.749614 442.76953,38.62299 396.74313,62.913209 378.47686,72.307288 c -18.26628,9.39409 -62.1054,36.010652 -62.1054,36.010652 L 205.20818,174.77239 99.089791,238.4434 Z"
       id="path33534"
       inkscape:connector-curvature="0"
       sodipodi:nodetypes="ccsscssccsccscccc" />
    <path
       style="fill:#000000;fill-rule:evenodd;stroke:none;stroke-width:1px;stroke-linecap:butt;stroke-linejoin:miter;stroke-opacity:1"
       d="m 503.09668,184.50147 c -35.97229,0.0938 -114.73759,24.1237 -114.73759,24.1237 0,0 -84.73031,31.68777 -86.45247,31.68777 -1.72217,0 -77.15281,32.72105 -80.2527,32.72105 -3.09989,0 -32.37662,17.22162 -37.5431,19.97707 -5.16649,2.75546 -24.11026,17.91048 -31.34333,23.07696 -7.23308,5.16648 -22.73253,20.66593 -22.73253,20.66593 l -4.47762,3.78875 c -4.47761,3.78875 -8.95524,13.08843 -10.33296,23.07695 -0.77773,6.91856 3.31826,11.09267 7.7336,15.42142 0,0 1.94797,2.9233 4.13987,6.08945 2.19197,3.16616 1.94921,4.38411 5.84598,10.71641 3.89684,6.33231 2.67858,8.0371 4.62696,13.15167 1.94845,5.11455 4.87048,13.63824 4.87048,18.02214 0,4.3839 2.19307,9.25506 2.43659,11.20347 0.24358,1.9484 1.21736,1.70482 3.40932,0.24352 2.19197,-1.4613 4.62655,-6.08904 8.27981,-9.98584 3.65325,-3.89681 3.41035,-6.33136 6.57651,-9.0104 3.16616,-2.67906 7.30686,-8.03755 9.01172,-9.01175 1.70488,-0.9742 5.60186,-7.30663 10.22937,-11.44699 4.62745,-4.14035 4.13917,-4.62776 10.9586,-9.74232 6.81941,-5.11455 4.62792,-3.65266 8.52469,-5.60106 3.89683,-1.9484 5.35846,-6.57608 9.49882,-10.47288 4.14034,-3.89681 6.57604,-5.60204 10.71638,-9.01176 4.14036,-3.4097 2.67838,-0.48684 7.06225,-2.43524 4.38392,-1.94841 2.43629,-1.46091 4.38475,-3.65286 1.94839,-2.19195 1.21743,-1.46222 2.9223,-3.89773 1.70487,-2.4355 4.62676,-2.43496 6.33163,-5.11402 1.70487,-2.67905 6.81948,-4.14077 11.69051,-8.76822 4.87096,-4.62746 4.87145,-2.67869 9.01179,-3.40934 4.14036,-0.73065 5.84577,3.16683 7.30706,6.33298 1.46136,3.16615 -6.08901,3.65286 -10.22935,3.65286 -4.14036,0 -5.84557,-0.7308 -9.49883,1.46115 -3.65325,2.19195 2.67906,2.1914 0,5.11402 -2.67906,2.9226 -5.11495,-2.19214 -8.5247,1.70467 -3.40967,3.8968 0.73165,0.24463 3.65423,2.43658 2.92263,2.19195 -1.46143,3.16556 0.48703,5.60107 1.94838,2.43549 3.16518,-1.21732 9.0104,-4.13992 5.84523,-2.9226 6.81942,-2.43641 12.17755,-4.14127 5.35812,-1.70484 3.16656,-1.21721 9.2553,-4.87048 6.0888,-3.65325 2.43603,2.1e-4 8.28118,-1.94819 5.84523,-1.94841 6.57604,-0.97384 10.9599,-3.40934 4.38394,-2.4355 3.89588,-2.43636 9.01042,-4.62831 5.11454,-2.19195 5.35812,-1.70438 12.17753,-4.38343 6.81941,-2.67906 8.7676,-3.16686 14.61281,-6.08946 5.84523,-2.9226 9.49854,-2.19159 11.69052,-3.40935 2.19189,-1.21774 6.33245,-1.70446 10.95996,-3.40933 4.62745,-1.70486 6.81928,-2.19265 13.8822,-6.08945 7.063,-3.89681 8.28112,-1.46012 9.01179,1.46248 0.73062,2.92262 -2.43616,0.48682 -7.30713,2.67877 -4.87102,2.19196 -6.81837,2.67864 -9.49743,3.8964 -2.67907,1.21775 -3.6536,2.1914 -9.01173,5.114 -5.35813,2.92261 -2.67967,2.43633 -6.82003,4.87183 -4.14035,2.43551 -7.06175,5.35736 -11.20211,7.06221 -4.14034,1.70485 -2.43575,-1.46078 2.1917,-4.87049 4.62752,-3.4097 4.87061,-2.67856 3.89642,-4.62695 -0.97419,-1.94841 -8.52449,3.89628 -10.95997,4.87047 -2.43548,0.97421 -6.33162,1.2174 -5.84453,3.40935 0.48709,2.19195 4.13966,0.24339 5.84453,1.46115 1.70487,1.21775 -4.87041,-0.48596 -6.08811,1.70602 -1.21778,2.19194 -2.43597,1.4609 -8.0376,3.65285 -5.60164,2.19195 -5.11386,1.70437 -6.57521,4.62697 -1.46122,2.9226 -4.62807,-0.97384 -6.81997,-3.40934 -2.19196,-2.4355 -1.70439,-0.24376 -4.62697,1.94819 -2.92264,2.19195 -7.06402,2.92327 -15.1012,6.33298 -8.03712,3.4097 -7.54886,1.46096 -10.9586,3.16582 -3.40967,1.70483 0.97371,2.4353 4.62697,1.94819 3.65325,-0.4871 5.11509,-1.46105 7.30705,-2.43524 2.1919,-0.97421 3.16595,-1.9e-4 2.67879,1.70467 -0.48709,1.70485 -1.94914,0.73041 -5.6024,2.67876 -3.65325,1.9484 -2.43485,0.97402 -6.08811,1.70467 -3.65325,0.73065 -3.65401,0.73158 -5.35888,3.89774 -1.70487,3.16615 -2.43493,1.70456 -5.35757,2.67877 -2.92258,0.9742 -2.67962,0.48676 -7.55058,3.16582 -4.87103,2.67904 -5.84412,2.67863 -9.74095,3.89638 -3.89677,1.21776 1.70466,-2.43498 4.38338,-4.87049 2.6794,-2.4355 6.57617,-3.16558 10.22943,-5.35753 3.65325,-2.19195 6.57527,-5.1152 5.3575,-6.5765 -1.2177,-1.46131 -9.4984,5.60224 -13.15165,7.06355 -3.65327,1.4613 -13.15139,6.08793 -15.34335,7.79278 -2.19198,1.70484 -6.57653,3.8976 -6.57653,5.11535 0,1.21775 3.89801,0.48669 1.70605,3.89639 -2.19198,3.40971 -3.89733,0.24352 -7.79416,0.24352 -3.89684,0 -4.62779,2.43487 -9.49883,6.08812 -4.87102,3.65325 -8.28049,7.06321 -14.85632,10.22937 -6.5759,3.16614 -11.68989,6.57595 -17.29152,11.6905 -5.60172,5.11456 -25.08568,23.13751 -25.08568,23.13751 0,0 -2.19259,2.43591 -6.57653,8.76822 -4.38387,6.3323 -0.97384,6.57574 -3.16582,13.63871 -2.19189,7.06295 1.70426,5.84527 5.35751,11.93403 3.65325,6.08876 3.89752,3.65353 6.57652,9.98584 2.67906,6.33231 3.4094,8.03708 3.16581,13.39518 -0.24351,5.35811 1.70426,6.08862 5.60109,13.63871 3.89677,7.55004 6.08936,9.49809 6.82003,16.07394 0.73054,6.57587 4.6278,9.25452 9.25524,16.31748 4.62745,7.06296 0.97399,7.55036 1.70467,9.74231 0.73061,2.19197 8.28118,18.51041 8.5247,19.72817 0.24358,1.21775 2.92229,2.19074 5.35749,-1.21896 2.43549,-3.40972 1.94811,-4.62663 3.16589,-7.79279 1.21778,-3.16615 3.16595,-1.70549 1.46108,-6.5765 -1.7048,-4.871 -1.46121,-3.16538 -0.48703,-7.30573 0.9742,-4.14036 2.19273,-1.94938 5.35889,-3.41069 3.16616,-1.4613 3.16568,-0.48707 4.62696,-0.24352 1.46129,0.24355 4.38435,1.70555 9.25531,6.08945 4.87103,4.38391 5.35847,-2.4351 8.28111,-3.65286 2.92258,-1.21774 3.40905,-4.3845 6.81873,-7.06355 3.40974,-2.67905 4.38434,-4.3831 8.0376,-7.54925 3.65325,-3.16615 6.81948,-2.92369 11.6905,-2.43659 4.87097,0.48709 4.62697,4.8711 5.11406,11.69051 0.4871,6.81941 -0.24393,9.01109 3.16582,15.09985 3.40968,6.08875 1.21873,9.49972 3.65422,13.39653 2.43547,3.89681 2.6783,7.30645 7.54926,13.15166 4.87103,5.8452 5.84543,5.84412 9.74226,10.22802 3.89677,4.3839 0.73041,5.35842 1.70467,9.74232 0.97419,4.3839 6.08907,3.16677 10.47294,6.82002 4.38394,3.65326 2.9221,3.40902 4.62697,6.33164 1.7048,2.92259 9.25468,3.41037 14.36923,6.33297 5.11454,2.9226 8.28166,4.383 16.56236,8.52336 8.28077,4.14034 4.62655,0.48732 8.27981,-2.19173 3.65325,-2.67905 1.21777,-3.41011 -0.24352,-8.76822 -1.46129,-5.35809 1.21764,-2.9218 1.21764,-7.54925 0,-4.62746 2.43672,-12.66528 0.97543,-18.99758 -1.46129,-6.33231 -1.94962,-4.62758 -0.97543,-11.447 0.97419,-6.81939 -0.97392,-6.33132 -2.67878,-9.25392 -1.70488,-2.92261 0.7306,-15.83107 0,-22.40693 -0.73069,-6.57585 -0.48703,-7.54984 -0.24352,-14.6128 0.24358,-7.06296 2.67906,-5.8456 0,-9.01174 -2.67906,-3.16616 -2.92182,-0.97456 -7.54927,3.40934 -4.62745,4.3839 -2.92326,2.19272 -6.33293,5.35888 -3.40974,3.16615 -7.06279,3.16547 -15.09992,6.33162 -8.03718,3.16616 -5.1146,0.48694 -11.93401,1.46115 -6.81941,0.9742 -9.2549,-0.24339 -12.90815,-1.46115 -3.65325,-1.21775 -9.01131,-3.89622 -12.66456,-5.35752 -3.65326,-1.46131 -6.08901,-4.62795 -10.22937,-8.03765 -4.14034,-3.40971 -7.30692,-4.62674 -9.2553,-6.81869 -1.94838,-2.19195 -4.87021,-6.33261 -7.06217,-9.74232 -2.1919,-3.4097 -3.41022,-9.49813 -7.79415,-15.58689 -4.38386,-6.08875 -13.63862,-19.48439 -14.85633,-21.67635 -1.21777,-2.19195 -3.65373,-4.38424 -7.79409,-9.4988 -4.14034,-5.11456 -2.67857,-8.03681 -4.87054,-15.83043 -2.19197,-7.79361 -1.21757,-9.98524 -1.21757,-15.5869 0,-5.60165 2.435,-7.3065 4.87048,-12.6646 2.43547,-5.35811 5.60198,-6.57596 9.01172,-11.69051 3.40967,-5.11457 6.57604,-6.08928 10.47287,-7.79413 3.89677,-1.70485 5.60213,-2.43524 8.5247,-2.43524 2.92264,0 15.0995,-0.73055 18.50923,-0.9741 3.40968,-0.24355 10.22854,1.9483 18.02215,0.9741 7.79367,-0.97421 9.01233,4.13998 15.58823,3.40933 6.57583,-0.73065 8.76787,-2.43557 12.66464,0.73059 3.89684,3.16614 2.19141,2.19275 4.62696,5.11535 2.43548,2.9226 1.46081,1.70441 4.13988,4.13992 2.67898,2.43549 3.654,1.94803 6.33299,3.40933 2.67907,1.46131 4.1396,0.73078 7.06217,-1.21762 2.92258,-1.94841 -2.67865,-3.40916 -3.65283,-5.11401 -0.9742,-1.70486 -4.87145,-2.67978 -8.5247,-5.84594 -3.65325,-3.16614 -1.46129,-2.43498 -0.24351,-4.87048 1.2177,-2.4355 4.1409,-0.48725 7.30706,1.46115 3.16615,1.94841 4.62799,-2.43506 7.79415,-4.13992 3.16615,-1.70484 2.19079,-2.43653 10.71501,-2.92363 8.52428,-0.4871 5.35826,-0.48676 11.20348,-3.16582 5.84522,-2.67905 8.03739,-4.13991 10.71645,-4.13991 2.67907,0 8.03726,2.92214 11.44693,4.38344 3.40975,1.4613 11.44666,3.89757 15.09991,5.35887 3.65326,1.46131 9.74302,2.92209 15.10114,4.8705 5.35806,1.94839 12.4205,2.435 17.77863,4.62695 5.35806,2.19196 6.08812,3.89719 31.41738,9.01176 25.3292,5.11455 64.29847,37.99382 64.29847,37.99382 0,0 1.70451,4.87152 3.1658,7.79413 1.46136,2.9226 3.16541,2.43508 6.57514,3.89638 3.40968,1.4613 7.30659,2.92335 11.93403,5.6024 4.62744,2.67906 11.93499,7.54898 15.34472,10.22802 3.40968,2.67906 7.54907,8.03747 9.25394,9.74232 1.70487,1.70486 3.89766,6.33259 4.38482,9.98584 0.4871,3.65327 -2.19272,1.21755 -5.35888,1.9482 -3.16616,0.73065 -8.52442,1.21759 -11.20349,1.46114 -2.67905,0.24355 -8.03731,1.70445 -10.71638,3.65287 -2.67905,1.9484 0.48717,2.19293 -0.97412,3.41069 -1.46136,1.21775 -5.60171,2.19119 -12.17754,7.0622 -6.5759,4.871 0.73062,1.70562 0.24351,5.35887 -0.48709,3.65327 0.24469,3.65259 1.70598,6.33164 1.46129,2.67906 2.43472,3.16701 7.30574,4.62831 4.87103,1.4613 1.70508,2.92204 -1.70466,5.35754 -3.40967,2.43551 -2.92312,4.38457 -7.79415,6.33297 -4.87096,1.94841 -7.30568,4.62696 -7.30568,4.62696 -5.35806,3.89681 -6.5759,3.40908 -11.93402,5.84459 -5.35813,2.43549 -6.81976,6.08916 -9.49883,8.76822 -2.67905,2.67904 -1.21763,1.94911 -0.48703,5.84592 0.73069,3.8968 1.46184,1.21758 7.06355,1.70467 5.60164,0.48711 3.65229,-0.48699 9.25394,-0.97409 5.60163,-0.48711 6.33238,-10e-4 11.6905,-2.68012 5.35806,-2.67906 4.8713,-2.19138 9.25524,-5.35753 4.38393,-3.16616 4.14076,-3.4103 9.2553,-7.06355 5.11454,-3.65326 4.38414,-0.73019 10.22937,-4.38344 5.84515,-3.65325 3.89601,-0.48681 7.54926,-2.67877 3.65325,-2.19195 4.62785,-4.38452 8.28112,-6.82003 3.65325,-2.4355 3.89718,-2.19168 9.2553,-2.43524 5.35805,-0.24355 8.76779,-1.3e-4 12.90815,1.21762 4.14034,1.21776 4.38283,3.65292 10.22797,3.16582 5.84523,-0.48709 2.68003,-2.43498 3.65423,-4.87049 0.97425,-2.4355 4.1398,2.92309 4.87047,8.03766 0.73068,5.11455 -2.67941,3.89615 -9.25524,6.0881 -6.57589,2.19195 -8.03725,1.46107 -11.6905,2.19172 -3.65325,0.73065 -19.72666,6.82003 -21.18795,6.82003 -1.46129,0 -6.33259,4.6267 -10.47295,7.06221 -4.14034,2.4355 -7.55016,8.28075 -11.93402,12.17755 -4.38393,3.89681 -5.60205,6.33244 -9.01172,11.44699 -3.40975,5.11457 -9.01152,8.76822 -11.20349,8.76822 -2.19196,0 -10.22874,0.97425 -16.31747,-0.48705 -6.0888,-1.4613 -10.22895,1.46112 -13.8822,1.70468 -3.65325,0.24354 -5.11496,1.461 -9.25531,2.67875 -4.14035,1.21776 -5.11481,3.8973 -9.98585,8.03765 -4.87103,4.14037 -5.84404,2.92321 -10.47149,7.06356 -4.62745,4.14036 -4.38476,5.35721 -5.11537,8.27982 -0.73068,2.92261 4.14083,0.9741 8.28118,0.9741 4.14035,0 6.08888,0.24345 10.95991,0.9741 4.87103,0.73065 -0.73151,1.94938 -5.11538,3.41068 -4.38393,1.46131 -4.62764,1.46097 -9.74226,3.16582 -5.11454,1.70486 -5.35682,3.8965 -11.93271,2.9223 -6.57584,-0.9742 -6.33287,3.1658 -7.30707,3.1658 -0.97418,0 -3.16656,5.6021 -8.52469,8.5247 -5.35806,2.92261 -11.68982,0.97374 -17.77862,4.38344 -6.08874,3.40971 -13.39518,13.6399 -13.88227,15.1012 -0.4871,1.4613 -3.41009,1.21739 -8.0376,2.92229 -4.62745,1.70486 -4.62773,2.1917 -10.71646,2.43525 -6.08873,0.24354 -3.16623,2.92225 0.97413,3.16581 4.14034,0.24354 1.21797,2.19278 -2.19177,4.87186 -3.40967,2.679 -2.92174,1.70419 -8.03629,5.84453 -5.1146,4.14036 -2.4361,1.21757 -7.30706,1.70466 -4.87103,0.48717 -4.14076,1.21868 -8.52469,4.14132 -4.38394,2.92258 -4.87116,0.24241 -10.71639,-2.19307 -5.84515,-2.43555 -4.62642,-3.1654 -10.47157,-7.30574 -5.84522,-4.14037 -4.62785,-2.1917 -9.2553,-2.1917 -4.62745,0 -2.67948,-0.24461 -8.28111,-3.16719 -5.60164,-2.9226 -7.55002,-0.48694 -13.39518,-1.46115 -5.84542,-0.9742 -5.84521,-5e-5 -12.42112,0.48705 -6.57582,0.4871 -11.6903,-1.70482 -13.39517,-0.24351 -1.70487,1.4613 4.1407,2.67969 9.01173,6.5765 4.87102,3.89683 9.01116,5.84548 14.85632,10.22935 5.84521,4.38394 10.22894,7.30548 14.3693,9.49744 4.14034,2.19197 38.72498,26.30435 45.5444,29.71403 6.81941,3.40973 7.3063,5.35826 14.85632,11.20348 7.55009,5.84515 12.66422,6.57479 16.31747,9.74095 3.65326,3.16616 18.26655,12.42209 22.65048,15.58829 4.38387,3.16612 10.22902,9.74186 13.39518,13.63863 3.16616,3.89687 8.52442,6.08805 11.44699,7.30573 2.92265,1.21779 7.30658,-1.46108 12.42112,-1.94811 5.11462,-0.48713 13.15118,-8.76802 17.04801,-10.95997 3.89678,-2.19195 6.81997,-11.2029 8.03767,-16.56102 1.21778,-5.35812 1.46102,-8.28063 2.43521,-13.63869 0.97419,-5.35812 2.43624,-4.14097 5.6024,-6.57651 3.16615,-2.43549 7.30547,-3.65278 9.98453,-4.87048 2.67907,-1.21778 19.24054,-8.52449 24.11156,-10.71646 4.87097,-2.19196 8.76857,-3.16664 18.99765,-7.79409 10.22915,-4.62744 15.83107,-6.33121 21.91986,-10.22804 6.08874,-3.89678 13.88165,-4.38448 19.48329,-7.06355 5.60164,-2.67907 6.81921,-0.24345 14.12572,-0.97405 7.30651,-0.73069 7.79381,6e-5 10.71646,-0.97412 2.92257,-0.9742 12.90794,-9.01145 14.61281,-11.93403 1.70479,-2.92265 2.9234,-3.65374 4.62827,-8.52472 1.70487,-4.871 1.21757,-5.3582 2.43526,-11.69051 1.21778,-6.33231 0.48711,-6.33238 0,-11.93404 -0.48709,-5.60165 -1.21742,-9.25489 -3.40938,-12.66461 -2.19198,-3.40969 -5.11551,-20.21411 -2.92361,-30.44322 2.19196,-10.22913 4e-4,-24.11113 -3.65285,-28.49505 -3.65325,-4.3839 -3.89642,-4.38438 -3.40932,-8.03764 0.48709,-3.65325 0.97377,-3.16542 3.89635,-6.81868 2.92264,-3.65325 4.87157,-1.94935 7.06355,-3.6542 2.19196,-1.70485 3.16561,-4.38342 5.60108,-4.62697 2.43548,-0.24356 3.40926,2.6e-4 4.62697,-2.43525 1.21778,-2.43549 1.46218,-3.41064 4.14124,-3.6542 2.67907,-0.24355 -0.24386,-1.94756 2.43521,-7.79278 2.67906,-5.84521 0.97432,-3.65398 -0.97406,-5.84593 -1.94845,-2.19195 -9.98557,-15.58658 -11.93402,-18.50919 -1.94838,-2.92261 0.73027,-1.94797 3.65284,-4.13992 2.92264,-2.19195 5.60192,-2.67967 10.95997,-6.82003 5.35792,-4.14035 4.06292,-1.05041 6.25488,-4.46012 2.19198,-3.40972 6.29196,-2.69945 10.27648,-4.77093 5.98809,-3.11309 7.09283,0.46368 10.25898,-7.32994 3.16616,-7.79361 -0.97384,-14.85737 -3.65291,-17.77997 -2.67905,-2.9226 -9.74198,-11.93366 -12.42104,-15.34337 -2.67907,-3.4097 -5.60205,-6.33272 -8.5247,-8.76822 -2.92258,-2.4355 -15.34335,-21.91854 -15.34335,-21.91854 0,0 -7.30713,-5.35866 -7.30713,-7.30707 0,-1.9484 3.16706,-1.94814 4.62834,-2.43524 1.46129,-0.4871 13.8822,-1.21746 26.54684,-2.67877 12.66463,-1.4613 35.31456,-10.22917 38.96795,-11.93403 3.65326,-1.70486 6.08825,-7.55005 4.6269,-12.66462 -1.46129,-5.11456 -4.62642,-5.35853 -9.98448,-8.52469 -5.35812,-3.16616 -6.81941,-5.11518 -11.93401,-6.82003 -5.11455,-1.70485 -12.90905,-5.60097 -17.0494,-6.33162 -4.14035,-0.73065 -15.34286,-4.38337 -20.45741,-5.11402 -5.11454,-0.73065 -8.2818,-10e-4 -15.10121,-1.46249 -6.81941,-1.46131 -9.498,0.73099 -16.8045,-2.9223 -7.30652,-3.65325 -8.76753,-0.73051 -15.83046,-1.21762 -7.06299,-0.48711 -11.93361,-0.73051 -16.31747,-1.21761 -4.38393,-0.48711 -12.42167,-1.94828 -18.99756,-1.21763 -6.57584,0.73065 -8.76746,-1.46091 -16.07397,-3.65286 -7.30651,-2.19196 -28.25253,-2.19307 -30.93159,-2.19307 -2.67906,0 -3.89567,1.219 -10.71508,0.97544 -6.81941,-0.24354 -5.35813,-0.73152 -12.17754,-4.38478 -6.81941,-3.65326 -3.41015,-0.73059 -9.01179,-0.48705 -5.60163,0.24355 -5.84515,-7e-5 -12.66457,0.73058 -6.81941,0.73065 -9.74178,-2.67872 -15.34341,-3.16582 -5.60171,-0.4871 -8.03836,0.24352 -13.88358,0.24352 -5.84516,0 -6.57466,0.24347 -11.2021,0.73058 -4.62745,0.48709 -12.6654,-1.46109 -17.77994,-1.9482 -5.11454,-0.4871 -9.49847,0.2436 -12.90815,-0.48705 -3.40973,-0.73065 -7.06292,-1.21762 -12.90814,-1.21762 -5.84522,0 -8.28071,1.4613 -12.90815,0 -4.62744,-1.4613 -9.01138,1.46135 -12.17754,-0.48705 -3.16615,-1.9484 0.73048,-3.41056 1.94818,-4.6283 1.21778,-1.21776 2.67976,-1.94818 5.6024,-2.19172 2.92257,-0.24356 2.67823,0.24339 7.79278,1.46114 5.11454,1.21775 3.89718,0.24343 8.52469,1.21763 4.62745,0.9742 5.3582,-2.19191 12.17761,-0.48705 6.81941,1.70484 5.60198,1.8e-4 9.98584,-1.70468 4.38394,-1.70484 3.65237,-1.94774 7.5492,-6.0881 3.89676,-4.14036 5.84556,-3.16709 9.2553,-3.89774 3.40967,-0.73065 5.35847,-0.24339 9.25524,-1.46115 3.89684,-1.21774 4.62786,-2.19161 8.52469,-3.1658 3.89678,-0.97421 9.49848,-3.16586 12.66464,-2.9223 3.16616,0.24355 4.38283,-1.46107 10.22805,-2.19172 5.84523,-0.73065 5.35833,-2.92355 10.22936,-3.6542 4.87096,-0.73065 6.81955,-0.48703 11.447,-0.73058 4.62745,-0.24356 8.2807,-2.19166 13.15166,-2.67877 4.87103,-0.4871 5.84543,-0.97417 10.47287,-0.24352 4.62752,0.73065 7.06327,1.3e-4 9.98585,-1.21763 2.92264,-1.21775 6.57493,0.2435 8.52331,0.48705 1.94838,0.24355 5.84544,0.48721 10.95998,-0.97409 5.11454,-1.46131 6.33265,0.97409 9.25523,0.97409 2.92265,0 8.03732,0.97426 11.44699,-0.48705 3.40975,-1.4613 5.11475,0.97387 11.20349,3.16582 6.08874,2.19195 5.84529,0.48697 11.93402,1.21762 6.08874,0.73065 3.16651,0.48816 9.01172,2.68011 5.84523,2.19195 4.87028,0.73056 7.54928,0.9741 2.67905,0.24355 8.03704,2.67869 13.39517,3.40935 5.35812,0.73065 5.84549,3.16554 10.22936,5.60105 4.38393,2.43551 7.06326,1.46118 9.74233,1.21762 2.679,-0.24354 0.48709,-2.67842 0.7306,-5.84458 0.2436,-3.16616 -2.92346,-2.19265 -4.87185,-6.08945 -1.94844,-3.89681 -3.40904,-4.13965 -6.33162,-6.57516 -2.92265,-2.43551 -4.62793,-4.14091 -8.28118,-7.30707 -3.65326,-3.16615 -2.92183,-2.67869 -7.30575,-3.40934 -4.38387,-0.73066 -3.41037,-1.70453 -6.08943,-3.16583 -2.67907,-1.4613 -3.65264,-0.73044 -5.8446,-1.94818 -2.19196,-1.21776 -4.38428,-1.70589 -8.76821,-2.92364 -4.38394,-1.21775 -3.16664,-1.46117 -8.28118,-1.21763 -5.11454,0.24356 -4.38304,-0.48689 -8.2798,-1.94819 -3.89685,-1.46129 -4.62787,-1.46122 -8.76821,-0.73057 -4.14043,0.73065 -5.84536,1.4e-4 -11.20349,-1.21762 -5.35812,-1.21775 -3.89718,0.487 -9.25524,0.97409 -5.35812,0.4871 -4.86992,-0.2436 -10.47157,0.48705 -5.6017,0.73065 -1.94913,0.97405 -6.33299,1.46116 -4.38394,0.4871 -0.2438,-1.46088 1.70466,-4.13992 1.94838,-2.67906 2.43623,0.24352 6.33301,0.24352 3.89683,0 3.16546,0.48713 6.08811,-0.24352 2.92257,-0.73065 4.14097,0.24358 6.33293,-0.24353 2.19197,-0.48709 3.89588,0.24353 9.01042,0.24353 5.11461,0 5.60197,-0.73054 9.98584,-0.9741 4.38394,-0.24355 4.38428,-0.48717 9.49882,0.73057 5.11454,1.21776 2.92327,-3e-5 6.57652,0.24353 3.65325,0.24355 5.11364,-1.3e-4 8.2798,1.21762 3.16616,1.21776 2.43618,0.974 6.57652,1.94819 4.14036,0.97422 3.40892,1.21758 7.30569,1.70467 3.89684,0.4871 4.8713,2.43635 9.74233,4.6283 4.87096,2.19196 5.11502,2.67847 8.28118,5.60107 3.16616,2.9226 5.11372,3.89751 7.79278,6.08946 2.67906,2.19195 4.14125,4.87048 4.14125,4.87048 l 1.46114,1.70467 c 1.46129,1.70486 2.67865,2.43553 3.89643,-0.24352 1.2177,-2.67906 0.73061,-4.13953 -0.48709,-7.79279 -1.21778,-3.65325 -1.2175,-3.16665 -1.94819,-7.79412 -0.7306,-4.62745 0.24345,-3.65385 1.21765,-7.06355 0.97418,-3.4097 -2.43501,-5.3573 -4.62697,-7.54925 -2.19197,-2.19195 -2.43645,-1.7047 -4.62835,-1.46115 -2.19196,0.24356 -2.19162,-0.7317 -2.67871,-2.68011 -0.4871,-1.9484 -0.97378,-3.89664 -4.13994,-1.46114 -3.16616,2.43551 -2.19299,-2.19142 -2.92368,-5.11402 -0.73054,-2.9226 -1.70432,2.19172 -4.13986,2.19172 -2.43549,0 -0.73034,-1.94796 -2.9223,-4.13991 -2.19197,-2.19196 -2.67865,3.16613 -4.13994,0.24352 -1.46129,-2.9226 -1.46218,-1.21768 -3.89773,-0.73057 -2.43548,0.4871 -4.13959,-2.43524 -7.06217,-2.43524 -2.92265,0 -1.46239,0.48583 -3.16719,-0.73192 -1.70487,-1.21774 -0.24317,-0.974 -3.40933,-1.9482 -3.16616,-0.9742 -1.21736,1.7e-4 -3.40933,-1.46114 -2.19197,-1.4613 -2.19149,-0.7306 -4.38345,-0.48704 -2.19196,0.24354 -3.16706,2.19169 -4.87186,2.43523 -1.70487,0.24356 -2.43499,-2.43513 -4.38337,-3.40934 -1.94839,-0.9742 -1.21868,1.46107 -4.38484,2.19172 -3.16615,0.73066 -0.97364,-0.24334 -5.35749,-1.9482 -4.38394,-1.70484 -1.70439,1.21757 -4.38346,1.9482 -2.67906,0.73066 -1.94934,-1.70452 -3.4107,-3.16582 -1.46129,-1.4613 -1.46087,0.24332 -3.65285,2.19172 -2.19189,1.94841 -1.46073,1.2177 -5.60108,0.48705 -4.14035,-0.73065 -0.24324,-0.97406 -2.4352,-1.21761 -2.19198,-0.24355 -1.21889,1.21753 -2.43659,1.94818 -1.21777,0.73065 -2.43507,-0.73046 -4.38345,-1.70467 -1.94838,-0.97419 -0.24316,-1.8e-4 -4.13994,1.70467 -3.89683,1.70485 -3.65401,0.97415 -5.60239,0.48705 -1.94846,-0.4871 -2.92203,-0.97425 -5.11399,0.48705 -2.1919,1.4613 -2.19156,0.48698 -3.16581,1.21763 -0.9742,0.73065 -2.67982,-1.21753 -5.35889,-2.19173 -2.67907,-0.9742 -2.19156,1.21878 -3.40932,3.16717 -1.21778,1.94841 -3.41044,-0.001 -5.84598,-1.46249 -2.43549,-1.4613 -3.65277,2.43654 -4.62697,2.92364 -0.97419,0.48709 -1.9479,0.73082 -4.38345,-1.70467 -2.43535,-2.43551 -1.70556,1.21751 -5.1153,2.19171 -3.40967,0.9742 -3.40912,2.43513 -5.60109,3.40934 -2.19196,0.9742 -2.67906,0.974 0,1.9482 2.67907,0.9742 1.70426,-1.70483 6.08812,-0.24353 4.38393,1.4613 2.19279,1.3e-4 4.62827,-1.21762 2.43549,-1.21774 0.97378,-1.21762 4.13994,-1.21762 3.16616,0 3.16553,-0.48694 6.08811,-1.46115 2.92258,-0.9742 4.62793,-0.73065 7.55058,0 2.92257,0.73065 1.9492,1.2177 5.84598,0.48705 3.89683,-0.73065 2.43478,-0.48689 6.57514,-1.94819 4.14034,-1.4613 5.11523,-1.46114 6.57651,-1.46114 1.46129,0 2.19149,1.94808 4.62697,2.92228 2.43555,0.97421 3.89621,-1.70466 5.11399,-1.70466 1.2177,0 2.1928,0.24349 4.14124,0.48704 1.94839,0.24355 2.67865,-1.94949 3.65285,-2.43659 0.97419,-0.4871 3.40905,0.97529 6.57521,2.43659 3.16616,1.4613 3.65387,-0.24348 6.57644,-0.73057 2.92265,-0.48711 3.41036,-1.70495 6.82004,0.9741 3.40973,2.67906 4.1396,0.7307 7.54926,-0.48705 3.40967,-1.21775 4.38441,1.21746 8.03767,2.67876 3.65326,1.46131 6.33246,0.73039 11.20348,2.43525 4.87103,1.70485 2.19135,1.4612 5.35751,0.9741 3.16616,-0.48711 1.70452,1.21736 3.40932,3.65286 1.70487,2.43551 5.60213,1.70605 9.0118,1.46249 3.40974,-0.24355 2.19142,0.73036 4.87047,2.67877 2.67907,1.9484 1.5e-4,3.89615 -1.94824,6.0881 -1.94846,2.19196 -1.21743,-1.46086 -2.4352,-4.1399 -1.21771,-2.67906 -1.7044,-0.48732 -4.62697,1.94819 -2.92258,2.43551 -0.97522,-1.46076 -3.16718,-5.11401 -2.19198,-3.65326 -2.43487,1.70455 -5.35751,2.92229 -2.92258,1.21775 -0.24318,-2.67853 -3.40933,-4.87048 -3.16616,-2.19196 -1.70577,1.70464 -3.89773,1.94819 -2.1919,0.24355 -0.48682,-0.48819 -3.4094,-2.4366 -2.92265,-1.9484 -2.43493,1.70501 -4.87048,-1.46113 -2.43548,-3.16616 -2.67989,-0.97434 -4.62827,1.21762 -1.94839,2.19195 -1.94784,3.4e-4 -5.114,-3.16582 -3.16614,-3.16616 -1.21742,0.24341 -3.40938,1.21762 -2.1919,0.9742 -1.70571,-1.94819 -4.14126,-1.94819 -2.43547,0 -2.43464,2.19187 -7.30568,0.73057 -4.87143,-1.4613 -3.89752,-1.94843 -6.08948,0.24352 -2.19198,2.19196 -2.67838,0.73073 -6.57514,-0.73057 -3.89685,-1.4613 -2.92341,0.97387 -5.11538,3.16582 -2.1919,2.19195 -2.92195,-1.70452 -5.8446,-3.16582 -2.92258,-1.4613 -2.19135,1.46099 -5.35751,2.9223 -3.16615,1.4613 -2.19271,-2.19189 -5.35887,-0.73058 -3.16616,1.4613 -1.46074,2.19182 -4.87048,1.21762 -3.40968,-0.9742 -4.14091,-2.19198 -7.30707,0.24353 -3.16615,2.4355 -3.16567,1.21783 -5.35757,-0.73057 -2.19196,-1.94841 -1.70445,-0.2424 -3.65283,1.706 -1.94846,1.94841 -2.19259,0.72942 -6.57653,-0.97543 -4.38385,-1.70486 -2.43499,1.21877 -4.62696,2.92363 -2.19196,1.70486 -3.65394,-1.46236 -6.57652,-2.68012 -2.92264,-1.21774 -2.67837,1.94924 -5.60101,4.87184 -2.92258,2.9226 -1.46205,0.2437 -5.6024,-1.46115 -4.14035,-1.70485 -2.19148,-0.73092 -4.62697,2.67877 -2.43548,3.40971 -2.92313,0.97446 -8.28118,-2.43524 -5.35812,-3.40971 -3.16657,2.67858 -8.5247,4.38344 -5.35812,1.70485 -4.62655,-1.2177 -8.52338,-0.48705 -3.89677,0.73065 -0.73054,2.67876 -0.73054,2.67876 0,0 -5.35868,-2.4351 -7.79416,-3.65286 -2.43555,-1.21775 -1.94783,1.21742 -5.3575,3.16581 -3.40974,1.94841 -2.43617,-1.94814 -6.33301,-2.43524 -3.89683,-0.4871 -1.94784,0.97392 -4.87047,2.67878 -2.92258,1.70484 -4.1409,-1.46116 -7.55058,-1.46116 -3.40974,0 -1.9479,1.9481 -4.38345,2.92229 -2.43548,0.97421 -3.16574,-2.19165 -4.13994,-2.67876 -0.97419,-0.4871 -4.87164,1.46114 -7.06355,1.46114 -2.19196,0 -5.35749,3.65308 -5.11398,1.70467 0.24358,-1.94839 -4.38463,-2.43545 -5.6024,-0.48705 -1.21778,1.94841 -3.89643,6.08945 -3.89643,6.08945 0,0 -4.38434,2.19197 -8.28118,0 -3.89677,-2.19195 -3.16568,-2.7e-4 -4.62689,2.67878 -1.46136,2.67906 -5.11509,1.46116 -7.79416,1.21762 -2.67906,-0.24356 -6.08907,-1.46119 -9.01172,-0.9741 -2.92258,0.4871 -2.19176,6.82002 -2.19176,6.82002 0,0 -3.40891,-0.24341 -7.06217,-1.21762 -3.65325,-0.9742 -3.16705,2.19138 -4.87185,5.35754 -1.70487,3.16616 -2.67858,1.46118 -4.13994,1.21762 -1.46129,-0.24354 -1.70453,4.14102 -2.4352,6.33299 -0.73069,2.19194 -3.41009,3.89634 -9.2553,4.38343 -5.84523,0.4871 -3.40913,0.73044 -5.60103,1.9482 -2.19197,1.21775 -1.46191,1.94806 -7.30706,3.1658 -5.84522,1.21776 -5.11496,0.97511 -9.49881,4.14127 -4.38394,3.16615 -3.16555,1.46125 -5.8446,0.48704 -2.67907,-0.9742 -6.08908,0.73058 -9.74234,0.73058 -3.65326,0 -5.35847,1.46117 -8.28111,1.21763 -2.92258,-0.24356 -8.28084,0.24352 -11.9341,0.24352 -3.65325,0 -4.62703,-2.92345 -3.89636,-4.62831 0.73062,-1.70485 -0.24364,-3.89602 0.73055,-7.30573 0.97419,-3.40971 9.49826,-7.55016 14.36929,-11.69052 4.87096,-4.14035 5.84557,-1.94814 9.74234,-2.43523 3.89683,-0.4871 8.76759,-4.14123 13.88219,-4.38479 5.11456,-0.24355 3.65354,-0.48686 10.71647,-2.19172 7.06299,-1.70485 3.40912,-0.48679 5.60102,-2.9223 2.19196,-2.43549 1.70556,-0.24362 5.60239,0.73058 3.89676,0.97421 4.38324,-0.48673 6.57521,-3.40935 2.19197,-2.9226 3.40995,-2.92334 10.22936,-5.6024 6.81941,-2.67905 3.16677,-0.73061 6.33293,-0.24352 3.16616,0.4871 4.1396,1.70476 7.30576,0.97411 3.16616,-0.73066 0.97433,-2.19138 -1.46116,-5.35754 -2.43547,-3.16616 0.73165,-2.43504 3.41072,-4.38344 2.67899,-1.9484 5.60073,-4.14113 8.52331,-5.35888 2.92265,-1.21776 12.06457,-4.99292 12.06457,-4.99292 5.16647,-2.41102 7.5775,-1.0333 12.39955,-0.68887 4.82205,0.34444 5.16649,-0.68886 7.92194,2.75546 2.75546,3.44433 -0.34443,1.0333 -2.41103,3.78875 -2.06658,2.75547 0.34444,2.41103 -1.37772,5.51092 -1.72216,3.09989 0.34444,0.68886 2.41102,0.68886 2.06659,0 3.09989,-3.09989 6.88864,-6.19978 3.78877,-3.09989 4.47763,-0.68886 7.57752,-0.68886 3.09989,0 4.82205,0 9.29966,-1.37773 4.47762,-1.37772 3.44433,-1.72216 6.19978,-2.41102 2.75546,-0.68886 7.23308,-1.37773 11.02183,-1.37773 3.78876,0 4.82205,-1.0333 7.23307,-1.72216 2.41103,-0.68886 9.64411,-0.34444 16.87718,-3.44433 7.23308,-3.09988 7.57751,-1.37772 13.43286,0 5.85535,1.37773 7.23307,-1.72216 12.05513,-2.41102 4.82205,-0.68886 9.6441,-2.41103 14.12171,-2.41103 4.47762,0 5.16648,-1.0333 12.05513,-1.37772 6.88864,-0.34444 11.02183,0 16.87718,-1.37773 5.85534,-1.37773 7.92194,-2.75546 14.46614,-1.0333 6.54422,1.72216 11.36627,-0.68886 17.91048,-1.37772 6.5442,-0.68887 13.08842,0.68886 14.81058,-2.41103 1.72216,-3.09989 -3.09989,-0.68886 -6.19978,-3.78876 -3.09988,-3.09989 -5.51091,-1.03329 -10.6774,-0.68886 -5.16647,0.34443 -6.88864,-3.44432 -6.88864,-5.51092 0,-2.06659 2.75546,-0.68886 5.51092,2.41103 2.75546,3.09989 5.85535,0 9.98852,-1.72217 4.13319,-1.72215 4.13319,2.41103 7.23308,2.0666 3.09989,-0.34443 2.75546,-2.0666 4.47763,-4.82205 1.72216,-2.75546 1.37772,3.78875 0.68886,6.54422 -0.68886,2.75545 1.37773,2.75545 4.82205,4.82205 3.44432,2.06659 5.16648,3.09989 8.26637,4.13318 3.09989,1.03329 0.68887,2.75546 4.13319,3.78876 3.44432,1.03329 9.6441,3.44431 14.46615,5.16647 4.82205,1.72217 8.95524,4.82206 12.74399,5.16649 3.78875,0.34443 0,-5.51091 -1.37773,-8.26637 -1.37773,-2.75547 -1.72216,-3.09989 -4.47762,-5.16648 -2.75545,-2.0666 -2.06659,1.37772 -6.54422,1.72215 -4.47761,0.34444 -2.06658,-3.09989 -3.44431,-6.88864 -1.37773,-3.78875 -4.82205,-4.82205 -2.0666,-5.16648 2.75546,-0.34443 4.47763,0.34443 5.16649,-1.37773 0.68886,-1.72217 -1.72216,-2.75545 -5.51092,-3.09989 -3.78875,-0.34443 -4.13318,-0.34443 -5.85535,-5.51092 -1.72216,-5.16647 -1.72216,-6.54421 1.0333,-10.33296 2.75546,-3.78875 3.44433,-4.13319 4.82205,-5.51092 1.37773,-1.37772 1.37773,2.06659 -1.37772,-5.51091 -2.75546,-7.5775 -10.33297,-12.74399 -29.96561,-21.01036 -19.63263,-8.26637 -37.88753,-10.6774 -73.01962,-11.36626 -0.54895,-0.011 -1.10948,-0.0149 -1.68048,-0.0135 z m 60.18146,24.97671 c 0.94381,0.0192 2.06728,0.17429 3.4497,0.52876 7.37305,1.89054 13.61134,1.5122 17.77056,2.26842 4.15915,0.7562 4.91594,0.18876 7.5627,2.64647 2.64676,2.45769 4.34735,3.40327 2.07872,3.59232 -2.26864,0.18906 -6.80557,-3.21392 -3.40258,0.37806 3.40292,3.59202 2.4578,1.13528 5.10456,3.78203 2.64674,2.64676 5.29316,2.45657 3.40264,4.34711 -1.89053,1.89054 -2.83592,0.5679 -5.48267,-0.56642 -2.64669,-1.13432 -6.23883,-5.10503 -5.86072,-0.94585 0.37811,4.15917 -0.37723,3.97092 3.782,5.2943 4.15916,1.32338 7.75138,-1.32435 5.10462,2.83484 -2.64675,4.15918 -1.70176,1.32356 -3.97041,4.72652 -2.26863,3.40297 -5.48335,9.26444 -5.67237,5.2943 -0.1891,-3.97012 1.13448,-6.61767 -2.26844,-5.67236 -3.40299,0.94526 -5.48171,3.59169 -7.93936,3.02454 -2.45774,-0.56716 -1.32345,-2.07882 -6.23885,-0.9445 -4.91539,1.13433 -3.02486,3.40219 -5.86071,0.9445 -2.83578,-2.4577 -0.56811,-4.91431 -4.16013,-3.96904 -3.59201,0.94527 -3.02493,4.15897 -5.4826,1.89033 -2.45773,-2.26864 -2.64572,0.1888 -3.21292,-3.97038 -0.56715,-4.15918 -2.83585,-8.6958 0.37803,-6.42716 3.21398,2.26865 4.34826,3.59159 6.6169,4.15875 2.26863,0.56716 3.78068,0.37807 3.78068,0.37807 2.64676,0.37811 2.64745,1.51166 6.42849,0.9445 3.78111,-0.56716 7.56091,2.8358 5.10324,-0.37807 -2.45772,-3.21391 -4.15894,-2.07909 -7.75109,-4.91489 -3.59195,-2.8358 -4.34832,-2.07977 -5.86073,-4.72652 -1.5124,-2.64676 -3.02445,-6.61687 -3.78062,-6.61687 -0.75624,0 0.37757,-0.94542 -2.0801,1.51227 -2.45773,2.4577 -4.5361,2.45836 -4.34708,0.18971 0.1891,-2.26864 -0.56755,-7.56205 4.15875,-7.373 3.84014,0.15361 4.56,-2.31414 8.64979,-2.23074 z m 52.53128,26.36387 c -0.58704,-0.005 -0.96702,0.27849 -0.68342,1.20013 0.75616,2.4577 0.7552,4.3481 2.83482,7.75106 2.07961,3.40297 2.45869,7.56177 3.0259,3.78069 0.56714,-3.78107 2.0794,-1.51185 1.13421,-5.67103 -0.94533,-4.15917 -3.78206,-6.23879 -3.78206,-6.23879 0,0 -1.55092,-0.81282 -2.52945,-0.82206 z m -130.56397,33.52831 c 0,0 -1.13387,0.18817 -4.53686,2.07871 -3.40299,1.89053 -2.83674,2.08053 -3.02583,3.78202 -0.18903,1.70149 3.40312,-0.37872 4.7265,-0.56777 1.32337,-0.18906 2.64709,-3.4025 3.21424,-4.53682 l -0.37805,-0.75614 z m -23.96628,1.37639 c -0.44866,-0.005 -1.05968,0.48952 -2.12315,1.83652 -2.83585,3.59202 -3.59132,4.7266 -6.04906,3.97039 -2.45772,-0.75622 -3.02576,-3.21303 -4.53816,-2.07871 -1.51247,1.13432 0.94622,1.13344 -2.45677,2.07871 -3.40292,0.94527 -2.64758,2.64729 -5.29434,1.32391 -2.64674,-1.32337 -3.78048,-1.51304 -4.91483,-0.56778 -1.13429,0.94528 -1.70199,1.32392 -1.70199,1.32392 0,1.32337 2.1e-4,1.51235 3.97035,0.75613 3.97013,-0.75621 0.75637,0.94454 5.10462,0.56644 4.34824,-0.37812 4.15909,-0.18902 6.99494,-0.37807 2.83578,-0.18905 2.83585,1.51242 5.86072,0 3.02487,-1.51243 4.15923,-2.45677 5.86072,-2.45677 1.70149,0 3.78117,1.51242 6.23883,0 2.45774,-1.51244 3.0244,0.7564 3.78062,-1.89035 0.75618,-2.64675 3.5e-4,-3.21506 -2.26835,-1.89168 -2.26864,1.32337 -4.34826,1.89054 -6.23884,0 -1.18155,-1.18159 -1.47762,-2.58343 -2.22531,-2.59266 z m -33.31713,6.18497 c 0,0 -1.32303,0.1896 -3.40257,1.32392 -2.07962,1.13432 1.32386,1.8903 2.08002,2.26841 0.75623,0.37809 1.70066,-0.94557 1.32255,-3.59233 z m -44.99413,9.45306 c -0.75618,0 -3.21425,0.37806 -3.21425,0.37806 -1.13436,1.32338 -2.0803,2.64644 -0.18972,3.02455 1.89053,0.37811 2.4587,1.32408 3.40397,-0.56643 0.94525,-1.89053 0.75623,-2.83618 0,-2.83618 z m -13.93064,3.32458 c -0.14845,-0.0166 -0.29552,0.008 -0.43729,0.078 -1.13435,0.56716 -2.83619,0.94584 -2.83619,0.94584 0,0 -2.45842,1.89022 0.56645,3.02455 3.02487,1.13432 3.40382,1.70213 4.16006,-0.18836 0.66172,-1.65422 -0.41402,-3.74375 -1.45303,-3.86006 z m -33.63731,13.98582 c -0.17779,-0.004 -0.44611,0.13521 -0.83015,0.46014 -2.45767,2.07959 -3.40237,4.15933 -5.29296,5.10459 -1.89051,0.94528 -3.0257,2.26931 -4.53817,0.18971 -1.5124,-2.07958 -1.89025,-2.26934 -2.64647,0.18837 -0.75618,2.4577 -0.37784,4.15951 -2.26837,3.21424 -1.89052,-0.94526 -0.37777,-2.64731 -3.78069,-0.94583 -3.403,1.70148 -0.7572,2.26979 -3.40396,1.89168 -2.64675,-0.37811 -2.45787,-3.21502 -5.10461,-2.26975 -2.6467,0.94527 -2.64628,1.70186 -4.15875,2.83619 -1.5124,1.13431 -1.3238,1.89111 -2.8362,0.94583 -1.51247,-0.94526 -2.07933,-2.8363 -2.64647,-1.70198 -0.56714,1.13433 -3.21377,-0.18867 -1.13421,2.83619 2.0796,3.02485 3.40332,2.45722 2.83618,4.53681 -0.56721,2.07959 -1.13421,4.72653 -1.13421,4.72653 0,1.13432 0.75534,4.91512 2.83489,2.64647 2.0796,-2.26864 0.18991,-3.59227 4.53816,-3.97038 4.34819,-0.37811 1.51255,0.75702 5.10456,-1.32256 3.59201,-2.0796 2.64626,-2.26834 4.91491,-3.02456 2.26863,-0.75621 3.40313,-0.7567 5.10454,-1.70198 1.7017,-0.94526 2.2683,-0.75675 4.15882,-1.3239 1.89052,-0.56717 2.83661,-1.32314 4.91622,-2.64647 2.07961,-1.32338 3.5916,-1.51201 4.15874,-4.15876 0.47856,-2.2332 2.16813,-6.48549 1.2082,-6.51058 z m 245.01506,16.65249 c -2.21766,0.008 -5.62878,1.08328 -7.44834,1.57954 -2.07961,0.56716 1.32302,2.45793 3.40258,4.34846 2.07961,1.89054 -0.56722,2.45657 0.75616,4.34711 1.32338,1.89053 1.32296,-0.18913 4.15875,0.75614 2.83584,0.94526 1.51335,1.32457 3.782,1.51362 2.26863,0.18905 1.70128,-3.6e-4 2.26842,3.40261 0.56715,3.40297 -0.94546,0.75536 -4.34845,1.70063 -3.40292,0.94527 -0.75617,3.40381 -0.75617,4.91623 0,1.51244 0.37791,1.89024 1.89038,3.02456 1.51241,1.13432 3.40368,0.56776 5.67239,0.56776 2.26863,0 3.40217,-0.94514 7.18327,-1.1342 3.78103,-0.18906 1.32379,-0.75725 2.83619,-3.02589 1.51248,-2.26865 2.26816,0.1897 4.53679,0.1897 2.26864,0 2.83668,0.37803 4.91622,0.75614 2.07961,0.37811 1.32262,2.64649 1.32262,2.64649 0,0 -3.2139,0.94519 -7.37305,0.75613 -4.15923,-0.18906 -4.15916,2.45792 -6.61682,4.34845 -2.45773,1.89054 1.51316,-0.37811 5.29427,0 3.78104,0.37811 3.21327,0.75679 5.67101,0.94584 2.45766,0.18906 2.45724,-1.13477 4.15873,-2.08004 1.70151,-0.94527 2.26906,-6.5e-4 3.21432,-0.18971 l 2.08002,1.70198 c 0,0 3.5914,-0.75564 6.42718,0.94584 2.83584,1.70149 2.26884,0.18848 3.97034,-0.94584 1.70149,-1.13432 0.18936,-0.18877 -2.26836,-2.64648 -2.45767,-2.4577 -8e-5,-2.64701 0.37805,-3.97038 0.37811,-1.32338 -0.94506,-1.13486 -3.40259,-1.32391 -2.45793,-0.18906 -0.94642,-1.51135 -1.89169,-3.96905 -0.94525,-2.45769 -1.70115,-0.37876 -4.15881,-0.18971 -2.45773,0.18906 -5.86093,-0.94568 -9.83105,-2.45811 -3.97014,-1.51243 0,-0.94441 1.89169,-1.70063 1.89052,-0.75622 0.18902,-2.08058 -0.37813,-3.40396 -0.56714,-1.32337 -1.70238,-0.56712 -4.16005,-0.37807 -2.45772,0.18905 -1.70101,0.37934 -4.91491,1.13554 -3.21396,0.75622 -0.56768,-1.13538 -1.70197,-2.64782 -1.13436,-1.51242 -1.89018,0 -3.7807,0 -1.89052,0 -6.05015,-0.56635 -8.69691,-1.32255 -2.64676,-0.75622 -0.37811,-4.34823 0,-6.61688 0.37812,-2.26864 -1.13463,-1.13415 -3.21423,-1.51227 -0.25999,-0.0472 -0.55234,-0.0684 -0.86915,-0.0673 z m -57.4435,2.62899 c -0.1344,0.01 -0.29394,0.0375 -0.48303,0.0848 -1.5124,0.37809 -5.67046,1.3231 -4.34708,2.64647 1.32338,1.32338 3.02494,-0.37856 5.48267,-2.08004 0,0 0.2883,-0.72356 -0.65256,-0.6512 z m -21.65617,3.10931 c -2.07955,0 -0.75638,0.9451 -4.7265,1.51227 -3.97014,0.56716 -2.64621,3.4e-4 -5.29297,3.21425 -2.64675,3.21391 -1.51336,1.51223 -4.16012,1.89034 -2.64675,0.37811 -1.70176,1.32325 2.64648,1.1342 4.34818,-0.18905 2.08065,1.32368 2.26974,3.59233 0.18902,2.26865 -1.51275,2.4573 -3.21424,3.78068 -1.70143,1.32338 2.26802,1.70206 6.42717,0.94583 4.15916,-0.75621 3.78221,-1.13435 8.50859,0.37807 4.72636,1.51244 4.34693,-0.94503 6.23745,-2.2684 1.89052,-1.32338 -0.56604,-1.13547 -4.34714,-1.89169 -3.78104,-0.75621 -1.70158,-2.26837 0.37804,-2.64647 2.07961,-0.37812 2.45773,-0.37806 5.86079,-0.37806 3.40299,0 3.97014,0.37806 6.23877,0.37806 2.26863,0 4.1584,-4e-5 7.18327,0.37807 3.0248,0.3781 5.86072,-0.9445 5.86072,-0.9445 1.5124,-2.0796 -0.18951,-1.89042 -2.08003,-1.13421 -1.89051,0.75621 -1.70094,-0.94507 -5.29295,-1.89035 -3.59201,-0.94526 -2.07948,-0.37813 -7.75103,0.37807 -5.67163,0.75622 -4.91519,0.18842 -8.88532,-0.1897 -3.97013,-0.3781 3.4021,-1.134 2.07872,-3.02454 -1.32338,-1.89053 -2.64565,0.37822 -4.7252,-1.1342 -2.07962,-1.51244 -1.13463,-2.08005 -3.21424,-2.08005 z m -46.31808,1.51227 c 0,0 -0.37797,0.1897 -1.51226,0.1897 -1.13435,0 -1.70162,-0.37887 -4.72649,0.9445 -3.02488,1.32338 -2.45843,0.75671 -5.67239,1.70198 -3.2139,0.94527 1.89086,1.32384 3.9704,2.08004 2.07962,0.75622 5.10504,-1.89094 7.18465,-2.45811 2.07955,-0.56716 0.9452,-0.75664 0.75609,-2.45811 z m 60.13436,9.04808 c -0.67758,0.0494 -0.92625,0.53544 -0.0161,2.10695 2.07954,3.59202 3.21472,1.70055 5.67237,2.45677 2.45774,0.75621 3.40273,0.37795 1.89033,1.51227 -1.51247,1.13432 -5.29296,1.51227 -5.29296,1.51227 0,0 -1.70226,2.45876 0.9445,2.64782 2.64675,0.18905 3.21396,-0.37804 6.23883,-0.37807 3.02487,0 4.91602,0.18907 7.18465,0 2.26864,-0.18903 4.1586,0.94462 4.91484,-0.1897 0.75624,-1.13434 -0.37853,-1.89097 -2.08002,-2.45811 -1.70143,-0.56717 -2.83551,-1.32245 -3.02454,-2.45678 -0.18909,-1.13431 1.13512,-1.51289 -1.70066,-2.08005 -2.83584,-0.56716 -5.1051,-1.89099 -7.18464,-2.08004 -2.07962,-0.18905 -3.02509,0 -4.34846,0 -0.74439,0 -2.32658,-0.6569 -3.19812,-0.59333 z m 50.52798,49.04659 c 0.8334,-0.0913 0.74247,1.32478 -0.17091,2.60343 -1.2177,1.70484 -2.19148,1.70446 -3.65283,3.65286 -1.46129,1.94841 -1.46123,-0.73033 -1.21763,-2.92229 0,0 1.94782,-0.97391 3.89641,-2.67877 0.48669,-0.42621 0.86715,-0.62478 1.14496,-0.65523 z m -10.40026,2.3599 c -0.73067,4.3839 -0.48703,1.21726 -0.24352,4.62697 0.24358,3.4097 3.65319,6.33311 0.24352,5.11535 -3.40968,-1.21775 -3.6525,-0.73044 -6.81866,-1.9482 -3.16616,-1.21774 -3.65394,-1.21751 -6.57652,-2.19172 -2.92264,-0.97419 -3.16581,-1.46248 -3.16581,-1.46248 4.62745,-1.21775 5.11496,-0.24332 8.5247,-2.19172 3.40967,-1.94841 8.03629,-1.9482 8.03629,-1.9482 z m -297.16692,19.31376 c -0.35407,-0.004 -0.70126,-0.002 -1.04136,0.007 -1.63253,0.0414 -3.09389,0.225 -4.28121,0.40766 -3.16616,0.4871 -3.16644,0.48661 -9.98585,4.62697 -6.81941,4.14035 -7.54899,6.57574 -10.71508,13.63871 -3.16615,7.06296 -0.97522,9.74158 -2.9236,16.56099 -1.9484,6.81941 -2.43535,10.23027 -1.21765,14.37063 1.21778,4.14035 3.65388,4.86996 6.82004,9.74097 3.16616,4.87101 5.11406,13.15274 6.81865,15.58824 1.70494,2.43551 3.65415,8.03672 4.62835,4.13992 0.97425,-3.8968 3.40946,-12.66546 2.19169,-17.29292 -1.21771,-4.62746 0.2433,-8.76767 2.67878,-13.88223 2.43555,-5.11456 0.73013,-6.0879 5.35757,-8.0363 4.62745,-1.94841 5.60186,-2.6788 10.7164,-2.43525 5.1146,0.24356 10.95969,0.4869 13.15165,1.9482 2.19197,1.4613 5.60274,0.24318 2.43658,3.40934 -3.16616,3.16616 -4.87137,2.67845 -8.76821,5.60105 -3.89676,2.92261 -3.89731,3.41023 -7.30705,7.79413 -3.40967,4.38391 -4.62718,5.11478 -3.4094,10.47289 1.21778,5.35811 2.19142,9.74206 5.35757,12.17756 3.16616,2.43551 4.38428,4.62697 8.76821,4.62697 4.38386,0 7.30665,0.48738 11.69051,-2.67877 4.38393,-3.16616 7.06355,-6.33192 7.30706,-3.65287 0.24358,2.67906 -5.35812,7.54938 0.48709,6.33164 5.84516,-1.21775 5.8442,-1.70449 8.76684,-3.40934 2.92257,-1.70485 5.35854,0.24375 8.76821,-1.9482 3.40968,-2.19195 4.62724,-3.41045 2.19176,-5.60241 -2.43554,-2.19195 -2.43466,-2.43482 -8.52338,-6.33163 -6.08874,-3.89681 -7.30713,-3.89716 -7.06355,-9.25527 0.24351,-5.3581 1.46087,-9.25492 4.13994,-12.42108 2.67905,-3.16616 1.94913,-8.03745 5.60239,-9.98584 3.65325,-1.9484 4.87027,-1.46099 6.81865,-2.92229 1.94838,-1.46131 0.73062,-3.16581 0.73062,-3.16581 -1.21778,-0.24356 -8.27967,-7.06343 -10.47157,-8.28119 -2.19197,-1.21774 -6.33246,-4.13969 -10.71639,-6.0881 -4.38393,-1.9484 -7.06285,-5.35865 -13.63868,-7.5506 -6.57611,-2.19196 -12.17844,-2.67854 -17.29298,-4.87049 -2.79693,-1.19872 -5.59426,-1.59742 -8.0726,-1.63201 z m 367.98003,74.47271 c 0.35008,0.0114 0.6693,0.16377 1.03462,0.46821 1.46135,1.21775 1.46114,2.19171 1.46114,2.19171 -2.19197,1.70485 -4.38441,3.16577 -7.55057,3.65286 -3.16616,0.48711 -5.60081,2.43519 -8.03629,2.9223 -2.43555,0.4871 -8.28173,-1.46102 -3.4107,-2.67877 4.87103,-1.21774 5.60184,-0.24322 10.47287,-3.16581 3.65325,-2.19196 4.97862,-3.42475 6.02893,-3.3905 z m -295.37077,9.29428 c -1.18876,0.17415 -2.93035,2.99248 -6.08404,6.5173 -4.1407,4.62746 -2.43631,3.40917 -5.60246,5.11401 -3.16616,1.70485 -4.62642,1.21763 -9.01035,1.21763 -4.38386,0 -4.62786,-0.73079 -9.25531,1.21762 -4.62745,1.94839 1.70439,2.43656 4.62697,2.68011 0,0 0.24337,1.21747 1.94817,2.67877 1.70487,1.4613 1.70563,0.97397 5.35888,1.94818 3.65326,0.9742 2.43486,1.9e-4 6.08813,-1.70467 3.65325,-1.70485 3.654,-1.94816 6.33299,-2.19171 2.67907,-0.24356 2.19142,-3.41045 4.62697,-5.60241 2.43547,-2.19195 0.97405,-2.19145 0.97405,-4.62696 0,-2.43551 2.1919,-4.38455 0.97412,-6.5765 -0.22835,-0.41099 -0.47262,-0.624 -0.74803,-0.67002 -0.0746,-0.0125 -0.15086,-0.0129 -0.23009,-10e-4 z m 319.28456,1.59838 c 0.47787,0.0199 1.03448,0.10795 1.71948,0.29061 3.65325,0.97421 4.38345,-0.24352 4.38345,-0.24352 0.24358,2.4355 1.705,3.89766 -1.21764,4.62831 -2.92257,0.73065 -3.41016,-0.97415 -8.5247,-0.48706 -5.1146,0.48711 -5.84404,-1.2e-4 -10.22797,1.21763 -4.38387,1.21775 -4.62807,0.73047 -7.06355,1.70467 -2.43555,0.97421 -3.16554,2.43511 -5.8446,3.65287 -2.67907,1.21775 -1.21847,1.46107 -5.84591,2.19171 -4.62745,0.73065 -7.79415,3.16606 -7.79415,0.9741 0,-2.19197 1.46184,-0.73016 7.79415,-4.62696 6.33232,-3.89681 7.30644,-4.13971 12.66456,-6.08811 5.35812,-1.94841 10.22895,-1.21891 14.12578,-1.70601 3.1661,-0.39577 3.76031,-1.59482 5.8311,-1.50824 z m -390.83365,4.65655 c -1.21323,-0.0412 -2.31879,0.44488 -3.70396,1.72352 -3.16616,2.92261 2.43617,3.41019 6.33301,8.03764 3.89676,4.62746 4.38304,2.43501 7.79277,4.62697 3.40968,2.19195 4.14084,-3e-5 7.79409,0.24351 3.65326,0.24355 1.46088,-3.89742 4.38346,-6.82001 2.43554,-1.94841 -0.97365,-0.7305 -5.8446,-1.46115 -4.87103,-0.73065 -5.84537,-1.94796 -10.7164,-4.13992 -2.73995,-1.23297 -4.47837,-2.15757 -6.03837,-2.21056 z m 392.68498,9.67101 c 2.31513,-0.0223 1.90767,1.73386 2.30342,2.5254 0.4871,0.97421 -3.41015,1.21757 -8.5247,1.70467 -5.11454,0.4871 -4.62655,0.48681 -8.52338,2.67876 -3.89676,2.19196 -4.14111,0.24345 -5.6024,0.9741 0,0 0.97378,-0.97395 3.40933,-2.43525 2.43548,-1.4613 3.89739,-1.70458 7.06355,-2.43523 3.16616,-0.73065 3.16671,-1.46102 7.79416,-2.67877 0.86761,-0.22833 1.5458,-0.32849 2.08002,-0.33368 z m -87.45078,8.70903 c 0.22595,-0.0185 0.4322,0.0262 0.61488,0.148 1.46136,0.9742 0.97405,2.67877 0.97405,2.67877 -3.16608,2.43549 -5.84556,8.28122 -8.2811,7.79412 -2.43549,-0.48711 -3.40975,-2.19143 -0.24359,-4.87049 2.77041,-2.34417 5.35413,-5.62053 6.93576,-5.7504 z m 43.11588,70.04216 c 4.42403,0.10028 10.38898,1.55507 12.59465,2.55768 2.94097,1.3368 -1.33634,8.82277 -3.47525,11.22903 -2.13886,2.40626 -1.06968,0.80223 -5.88222,2.94113 -4.81254,2.13889 -3.2079,3.20825 -5.34682,5.61451 -2.13893,2.40626 -6.15053,6.14897 -9.35884,10.1594 -3.20839,4.01043 -4.81248,1.6037 -5.61453,5.34677 -0.80211,3.74307 2.94131,2.6745 5.88228,5.34812 2.94097,2.67363 2.94118,1.87092 9.62523,2.40564 6.68406,0.53473 4.2775,0.26813 8.28794,0.53549 4.01043,0.26736 7.48616,0.80129 8.55562,1.33602 1.06946,0.53473 6.14963,3.20846 7.75379,4.81263 1.60416,1.60418 1.33653,8.2886 0.80184,12.56639 -0.53476,4.2778 -0.53428,2.13861 -3.47525,6.4164 0,0 -3.74316,6.68431 -8.55563,7.75376 -4.81254,1.06945 -2.94159,2.94055 -9.89299,3.47527 -6.95139,0.53472 -10.15958,1.07 -14.97205,1.33736 -4.81254,0.26736 -16.04159,-0.80264 -21.65617,-1.33736 -5.61459,-0.53472 -12.03164,-4.81168 -14.43792,-5.07904 -2.40627,-0.26736 -3.47607,-3.7435 -4.01077,-8.82337 -0.53469,-5.07989 -2.40551,-6.41637 -6.1486,-8.2879 -3.74301,-1.87154 -8.55617,-7.7535 -11.76455,-12.29866 -3.20832,-4.54516 4.8e-4,-3.74315 3.20886,-6.68413 3.20832,-2.94099 3.74336,-4.01089 7.75379,-6.95188 4.01043,-2.94098 6.14874,-3.47562 10.96127,-5.61451 4.81255,-2.1389 4.01106,-4.00993 6.14998,-7.21829 2.13886,-3.20834 3.20805,-2.13921 8.28794,-4.01074 5.07988,-1.87153 5.3471,-1.87203 9.35753,-5.08038 4.01043,-3.20834 6.14894,-2.9403 10.15937,-6.14865 4.01043,-3.20834 7.75372,-4.54544 11.4968,-5.88226 0.93576,-0.3342 2.24005,-0.45185 3.7147,-0.41843 z m -397.22577,32.3134 c -2.37575,0.007 -0.88264,2.37738 1.21627,3.99191 2.2388,1.72216 3.78875,1.37773 5.33869,4.47761 1.54995,3.09989 1.54995,1.20552 4.64984,1.89438 3.09989,0.68886 1.20551,0.68886 3.78875,3.44433 2.58324,2.75545 3.61654,2.23881 7.40529,4.47761 3.78876,2.23881 1.37774,0.86109 1.54995,3.09989 0.17221,2.23881 1.54994,1.20551 4.3054,1.89439 2.75545,0.68886 1.72216,-0.51665 4.64984,0.17221 2.92766,0.68886 -0.86109,1.89437 -2.92768,3.09989 -2.0666,1.20551 0.68886,0.86107 3.44432,1.89437 2.75546,1.0333 2.92767,-1.37772 3.44432,0 0.51665,1.37773 -0.51665,2.58324 1.89438,3.2721 2.41102,0.68888 4.47762,-1.54993 6.372,-1.54993 1.89437,0 -0.34444,2.75545 -0.34444,4.64982 0,1.89439 2.75546,0 6.19978,1.72217 3.44432,1.72216 2.41102,-1.54994 3.96097,-2.41103 0,0 -0.68886,0 -2.75546,-0.86108 -2.06659,-0.86107 -1.89437,-1.20551 -1.20551,-3.96097 0.68886,-2.75545 -0.68886,-0.86108 -3.2721,-0.68886 -2.58324,0.17222 -3.78875,-1.03329 -4.3054,-2.41103 -0.51665,-1.37773 -2.58324,-3.2721 -3.96098,-6.02756 -1.37773,-2.75546 -2.41103,-0.68887 -4.13318,-1.72216 -1.72216,-1.0333 1.20552,-3.78876 2.75545,-6.54421 1.54995,-2.75546 -1.54993,-1.72216 -3.44432,-2.23881 -1.89438,-0.51665 -3.44432,0.17221 -6.71643,1.37772 -3.2721,1.20552 -5.51091,0.34444 -10.33296,-1.03329 -4.82205,-1.37773 0.68887,-0.86108 2.23881,-2.0666 1.54995,-1.20551 4.13319,-0.51663 7.40529,0.34444 3.27211,0.86108 4.13319,-0.17221 7.40529,-0.86107 3.27211,-0.68888 2.41102,-0.68888 2.75546,-2.92768 0.34443,-2.23881 -1.89437,-1.54995 -3.78875,-1.72216 -1.89438,-0.17222 -4.64984,0.17221 -8.09416,0.34442 -3.44432,0.17223 -6.02756,0.34444 -8.09416,0.17223 -2.06658,-0.17223 -4.82205,-2.0666 -8.6108,-0.34444 -3.78875,1.72216 -5.16649,-2.58324 -8.26638,-2.92767 -0.1937,-0.0215 -0.36901,-0.0314 -0.52739,-0.0309 z m -20.0941,34.79841 c -5.48308,0.10597 -6.33032,3.31381 -10.20518,6.21996 -4.13319,3.09989 -5.51091,7.92194 -8.61081,11.02183 -3.09989,3.09989 -6.88864,14.12173 -9.98853,18.94378 -3.09989,4.82204 -6.88864,10.67739 -11.71069,14.12171 -4.82205,3.44432 -12.05513,12.05513 -13.43285,14.12172 -1.37774,2.06659 -9.98854,4.82205 -10.67741,8.6108 -0.68886,3.78876 3.44433,6.88864 6.88864,9.64411 3.44433,2.75545 5.16649,11.71069 6.88865,14.81058 1.72217,3.09988 7.92194,11.7107 10.6774,15.84388 2.75546,4.13318 8.6108,10.67741 10.6774,13.43288 2.06659,2.75548 2.75545,10.33289 2.75545,12.05513 0,1.72213 -2.75545,-3.09992 -2.75545,-3.09992 0,0 -5.51092,-8.61076 -7.57752,-11.02179 -2.06658,-2.41102 -8.95522,-11.71073 -12.74399,-16.87722 -3.78875,-5.16648 -7.5775,-11.02183 -12.39955,-18.2549 -4.82205,-7.23308 -12.39955,-10.6774 -12.39955,-10.6774 -1.72217,-1.0333 -5.51092,1.72217 -7.92194,2.75546 -2.41103,1.0333 -5.16649,3.09988 -11.021829,4.47762 -5.855354,1.37773 -12.055131,4.47762 -17.221619,8.26637 -5.166477,3.78875 -20.321497,7.23307 -24.454683,9.29966 -4.133185,2.0666 -25.487978,7.23308 -27.554571,7.92194 -2.066593,0.68888 -12.399558,4.82205 -17.221608,9.29966 -4.8220507,4.4776 1.033296,11.02189 1.722161,17.56607 0.688864,6.54418 0,27.55452 0.344432,36.16539 0.344432,8.61076 -1.722161,28.9323 -2.7554573,32.03212 -1.033297,3.09992 0.344432,178.76036 0.344432,178.76036 0,0 1.3777283,9.6441 2.4110253,11.3662 1.033296,1.7223 3.444322,1.7223 9.644101,1.3778 6.199779,-0.3444 26.521274,3.0998 37.887536,3.0998 11.366265,0 31.68776,0.6889 43.39845,-1.7221 11.7107,-2.411 34.44322,1.7221 39.26527,-1.3777 4.82205,-3.0999 120.8957,2.0666 122.96229,1.3777 2.06659,-0.6889 6.19977,-8.6108 15.15501,-10.6774 8.95524,-2.0666 11.02183,-10.6774 18.59935,-16.8771 7.5775,-6.1999 10.33296,-1.0334 8.95522,0.3443 -1.37772,1.3778 -15.15501,13.4329 -23.42138,17.5661 -8.26637,4.1331 -14.46615,10.6774 -16.18831,12.0551 -1.72217,1.3778 7.92194,-1.0332 15.15501,-2.0666 7.23308,-1.0333 13.43286,1.0334 29.62117,2.0666 16.18831,1.0334 19.63263,-1.3777 32.72106,-2.411 13.08842,-1.0332 22.04366,1.3778 29.27673,0.3444 7.23307,-1.0333 24.45469,0.3445 33.75435,0 9.29967,-0.3444 23.07696,-0.6889 31.34333,-1.3776 8.26637,-0.6889 16.53275,1.0332 27.55458,2.0665 11.02182,1.0333 67.85313,2.0666 70.95302,2.7555 3.0999,0.6888 6.54421,-3.0999 6.54421,-5.5109 0,-2.4111 -0.34443,-6.5442 -0.34443,-13.0885 0,-6.5442 1.72216,-9.6441 1.72216,-16.5328 0,-6.8886 1.72216,-8.6107 0,-15.4993 -1.72216,-6.88869 2.0666,-9.98859 6.19978,-18.94379 4.13318,-8.95532 2.75546,-7.23308 2.41103,-15.4995 -0.34444,-8.26642 -2.41103,-19.63265 -1.72216,-21.01034 0.68886,-1.37779 0.34442,4.82206 6.54421,9.98855 6.19978,5.16639 0.68886,5.85529 6.88864,12.05513 6.19978,6.19974 0.34443,5.51084 -0.68886,10.67734 -1.0333,5.1665 0,6.19984 -1.72217,12.74402 -1.72216,6.54419 3.09989,12.74399 2.06659,17.91039 -1.03329,5.1665 -0.68886,11.0219 0.68887,21.6992 1.37773,10.6775 -2.06659,10.6775 -3.44432,15.844 -1.37773,5.1665 1.03329,3.0998 7.23308,2.7555 6.19978,-0.3445 6.19978,-0.3445 21.35479,-0.3445 15.15502,0 6.54421,-0.6889 11.71069,-1.0333 5.16648,-0.3445 5.85535,1.0333 13.08842,2.411 7.23308,1.3778 9.6441,-0.6889 15.15502,-1.3777 5.51091,-0.6889 0,-0.6889 -5.16648,-5.5109 -5.16649,-4.8221 -4.13319,-3.4444 -6.54421,-6.1998 -2.41103,-2.7554 -2.41103,-2.0666 -5.51092,-3.7888 -3.09989,-1.7221 -8.26637,0 -1.72216,4.1332 3.95009,2.4949 5.25776,2.3545 5.60377,2.154 0.10707,-0.2111 0.17697,-0.1019 0,0 -0.0304,0.06 -0.0627,0.1365 -0.0928,0.257 -0.34443,1.3778 -9.64411,3.7888 -10.6774,3.0999 -1.0333,-0.6889 -6.54421,-6.5441 -10.33296,-12.0551 -3.78875,-5.511 -3.78875,-8.9552 -2.0666,-16.5327 1.72216,-7.5776 3.09989,1.3776 7.23308,3.4443 4.13318,2.0666 4.82205,-2.411 3.78875,-8.2664 -1.03329,-5.8553 -11.71069,-12.3996 -16.18831,-18.59929 -4.47761,-6.19984 -9.98854,-9.6441 -12.39955,-13.08847 -2.41103,-3.44426 -5.16649,-18.94376 -4.47763,-25.14349 0.68887,-6.19984 7.92194,21.35478 9.64411,25.14349 1.72216,3.78882 6.19977,4.4776 13.08842,11.36634 6.88864,6.88862 8.26637,8.26632 13.43286,15.84382 5.16647,7.5775 10.67739,15.8438 16.1883,22.3881 5.51092,6.5442 9.64411,8.6108 15.49946,14.8105 5.85534,6.1999 3.09988,4.1333 9.29966,5.1665 6.19978,1.0334 22.73252,1.0334 22.73252,1.0334 0,0 -4.47761,-9.6441 -4.47761,-12.3996 0,-2.7555 -6.19978,-14.4662 -8.95524,-22.7325 -2.75545,-8.2664 -8.61081,-15.8439 -15.84388,-25.14356 -7.23308,-9.29965 -9.6441,-13.77726 -17.22161,-22.04368 -7.57751,-8.26631 -10.33296,-11.36623 -18.2549,-20.32144 -7.92194,-8.95531 -18.94377,-13.77737 -26.86571,-21.01044 -7.92194,-7.23308 -16.53274,-12.74392 -22.73253,-18.25486 -6.19978,-5.51095 -18.59933,-14.46616 -22.38808,-17.56608 -3.78877,-3.09981 -1.0333,4.13327 2.75545,11.71068 3.78875,7.57753 8.6108,10.333 7.92194,15.4995 -0.68886,5.1665 -15.84388,-17.22163 -15.84388,-17.22163 0,0 -2.75545,-3.44426 -3.78875,-9.29965 -1.0333,-5.8554 2.41102,0 2.41102,-3.78871 0,-3.78882 -4.82205,-12.74402 -8.26637,-18.25497 -3.44432,-5.51095 -12.74399,-19.28821 -13.08842,-27.21018 -0.34444,-7.92186 -9.6441,-26.17683 -11.71069,-27.89896 -2.0666,-1.72213 -2.0666,0 -2.0666,4.82205 0,4.82205 1.0333,10.333 -0.68886,17.56607 -1.72217,7.23308 -5.16648,-1.03334 -5.16648,-1.03334 l -9.98854,-21.69923 c 0,0 -8.6108,-19.2882 -13.43285,-21.01033 -4.82206,-1.72213 -7.57751,2.75547 -13.43286,0.34444 -5.85535,-2.41102 -3.78875,-1.37779 -5.51091,5.85529 -1.72217,7.23308 -3.44433,12.39957 -6.88864,21.01044 -3.44433,8.61076 -9.6441,29.27665 -11.7107,38.92075 -2.06659,9.6441 0.68886,7.92197 2.41102,11.02189 1.72216,3.09993 0.68886,1.37769 -5.51091,2.41103 -6.19978,1.03323 0.34443,3.44426 -5.85534,5.1665 -6.19979,1.72213 -9.29968,-10.333 -13.77729,-15.15505 -4.47762,-4.82205 -35.82095,-41.67633 -36.85425,-43.05401 -1.03329,-1.37768 -29.27673,-30.99889 -45.80948,-47.53162 -16.53274,-16.53277 -66.13098,-58.20906 -69.57529,-61.65339 -3.44433,-3.44431 -18.59934,-16.1883 -22.73253,-18.59933 -4.13318,-2.41102 -26.86571,-20.3215 -30.99889,-25.48799 -4.13318,-5.16648 -5.51092,-7.5775 -5.16648,-11.02183 0.34443,-3.44432 3.09988,-4.82205 -3.44433,-5.16649 -0.40904,-0.0215 -0.79556,-0.0272 -1.16107,-0.0202 z m 9.92261,200.64387 c 1.5091,0.0471 3.46719,0.88529 3.46719,0.88529 0,0 4.38435,13.15225 8.76821,19.97162 4.38393,6.81947 6.81962,14.61235 9.74226,19.48328 2.92258,4.87103 7.79388,22.40642 10.71646,27.27746 2.92265,4.87104 7.7936,19.97195 12.66464,30.20106 4.87103,10.2291 -2.92369,4.38346 -2.92369,4.38346 0,0 -3.40871,-7.30628 -9.25392,-14.61279 -5.84522,-7.3065 -5.35841,-18.99647 -10.22937,-29.71271 -4.87103,-10.71624 -9.74184,-21.43336 -14.12578,-29.227 -4.38392,-7.79353 -1.46184,-13.15072 -7.30705,-21.43139 -4.65789,-6.02789 -3.45955,-7.27823 -1.51895,-7.21828 z M 424.363,882.68696 c 0.50363,-0.011 1.23651,0.42697 2.30205,1.72092 3.40974,4.14028 7.0632,9.49966 10.71645,14.12708 3.65326,4.62741 7.06197,7.3053 9.01035,10.95855 1.94845,3.65325 3.40987,5.8463 -0.97405,2.19304 -4.38387,-3.65325 -5.60075,-4.14082 -8.76691,-7.79407 -3.16616,-3.65326 -4.87172,-4.87148 -5.8459,-8.28122 -0.9742,-3.40963 -6.08811,-9.74098 -6.08811,-9.74098 l -1.46116,-0.97406 c 0,0 -6.9e-4,-2.18767 1.10728,-2.20926 z m -67.14141,65.65201 c 3.43517,0.0942 13.00094,2.37639 16.34979,3.04611 4.87095,0.97416 4.38365,2.92194 1.94818,5.84454 -2.43548,2.9226 -2.92299,3.8971 -9.74227,10.22944 -6.81955,6.33223 -5.84543,7.30639 -10.71646,13.1517 -4.87102,5.8451 -12.66394,17.04865 -18.99625,22.40684 -6.33225,5.3581 -17.53608,13.1513 -20.94575,16.074 -3.40974,2.9225 -7.30575,-1.9482 -7.30575,-1.9482 0,0 8.28043,-4.3846 15.58693,-6.333 7.30651,-1.9483 6.33211,-5.3582 14.12572,-12.66469 7.79361,-7.3065 5.35847,-7.79353 9.2553,-13.15159 3.89684,-5.35807 8.76773,-10.22878 12.66457,-15.58685 3.89677,-5.35817 8.76676,-7.79331 10.22804,-15.09992 1.46129,-7.3065 -5.35812,-0.48659 -12.17753,-4.38335 -2.13107,-1.21779 -1.83596,-1.62778 -0.27452,-1.58503 z m -14.82538,4.5073 6.82002,0 c -4.38386,0.97416 -14.12633,6.33256 -20.94574,9.7423 -6.81941,3.40973 -23.86777,4.87027 -26.79035,7.30573 -2.92265,2.43547 -1.46197,-6.33168 5.84453,-6.33168 7.30651,0 1.94962,1.94745 14.12709,-3.89775 12.17754,-5.8452 18.02187,-6.8186 20.94445,-6.8186 z"
       id="path33540"
       inkscape:connector-curvature="0" />
    <path
       style="fill:#000000;fill-rule:evenodd;stroke:none;stroke-width:4px;stroke-linecap:butt;stroke-linejoin:miter;stroke-opacity:1"
       d="m 627.58356,668.84386 c 1.33681,-0.53472 4.54513,-3.47571 5.07989,-1.33682 0.5347,2.1389 1.60417,3.47572 0.26735,6.14933 -1.3368,2.67363 -2.94097,4.54516 -2.40627,5.61461 0.5347,1.06945 0,3.74308 -1.8715,3.74308 -1.87158,0 -4.01044,-1.06946 -2.94105,-3.47571 1.06947,-2.40626 3.47574,-1.87154 3.20839,-4.2778 -0.26734,-2.40626 -0.26734,1.06945 -0.80211,-2.67362 -0.5347,-3.74307 -0.5347,-3.74307 -0.5347,-3.74307 z"
       id="path33594"
       inkscape:connector-curvature="0" />
  </g>
</svg>
